<svg width="553" height="574" viewBox="0 0 553 574" fill="none" xmlns="http://www.w3.org/2000/svg">
<rect width="553" height="574" rx="11.04" fill="#715AFF"/>
<g filter="url(#filter0_d)">
<rect x="14.1" y="15.1" width="525.8" height="542.8" rx="9.9" fill="white" stroke="#AB8484" stroke-width="0.2"/>
<rect x="319.025" y="188.64" width="220.974" height="23.2859" fill="#CCF0E5" fill-opacity="0.3"/>
<rect x="319.413" y="189.027" width="220.199" height="22.5112" stroke="#CB9F9F" stroke-opacity="0.4" stroke-width="0.774669"/>
<line x1="484.029" y1="211.926" x2="484.029" y2="188.64" stroke="#CB9F9F" stroke-opacity="0.4" stroke-width="0.774669"/>
<line x1="428.448" y1="211.926" x2="428.448" y2="188.64" stroke="#CB9F9F" stroke-opacity="0.4" stroke-width="0.774669"/>
<line x1="374.221" y1="211.926" x2="374.221" y2="188.64" stroke="#CB9F9F" stroke-opacity="0.4" stroke-width="0.774669"/>
<path d="M290.852 197.458H288.49V203.882H286.901V197.458H284.571V196.171H290.852V197.458ZM290.322 200.964C290.322 200.396 290.432 199.889 290.651 199.444C290.869 198.999 291.184 198.655 291.593 198.411C292.006 198.168 292.485 198.046 293.028 198.046C293.801 198.046 294.432 198.283 294.919 198.756C295.409 199.229 295.683 199.871 295.74 200.683L295.75 201.075C295.75 201.954 295.505 202.66 295.014 203.193C294.523 203.723 293.865 203.988 293.039 203.988C292.213 203.988 291.553 203.723 291.058 203.193C290.568 202.664 290.322 201.944 290.322 201.033V200.964ZM291.853 201.075C291.853 201.619 291.955 202.035 292.16 202.325C292.365 202.611 292.658 202.754 293.039 202.754C293.41 202.754 293.699 202.613 293.907 202.33C294.116 202.044 294.22 201.589 294.22 200.964C294.22 200.431 294.116 200.018 293.907 199.725C293.699 199.432 293.406 199.285 293.028 199.285C292.654 199.285 292.365 199.432 292.16 199.725C291.955 200.014 291.853 200.464 291.853 201.075ZM298.525 196.743V198.152H299.505V199.275H298.525V202.134C298.525 202.346 298.566 202.498 298.647 202.59C298.728 202.682 298.883 202.727 299.113 202.727C299.282 202.727 299.432 202.715 299.563 202.69V203.85C299.263 203.942 298.954 203.988 298.636 203.988C297.563 203.988 297.016 203.446 296.995 202.362V199.275H296.158V198.152H296.995V196.743H298.525ZM303.678 203.882C303.607 203.744 303.556 203.573 303.524 203.368C303.153 203.781 302.671 203.988 302.078 203.988C301.517 203.988 301.051 203.825 300.68 203.501C300.313 203.176 300.13 202.766 300.13 202.272C300.13 201.665 300.354 201.199 300.802 200.874C301.254 200.549 301.905 200.385 302.756 200.381H303.461V200.053C303.461 199.788 303.392 199.577 303.254 199.418C303.12 199.259 302.906 199.179 302.613 199.179C302.356 199.179 302.153 199.241 302.004 199.365C301.859 199.488 301.787 199.658 301.787 199.873H300.257C300.257 199.541 300.359 199.234 300.564 198.952C300.769 198.669 301.058 198.449 301.432 198.29C301.807 198.127 302.227 198.046 302.693 198.046C303.399 198.046 303.958 198.224 304.371 198.581C304.788 198.934 304.996 199.432 304.996 200.074V202.558C305 203.102 305.076 203.513 305.224 203.792V203.882H303.678ZM302.412 202.817C302.638 202.817 302.846 202.768 303.037 202.669C303.228 202.567 303.369 202.431 303.461 202.261V201.276H302.889C302.123 201.276 301.715 201.541 301.665 202.071L301.66 202.161C301.66 202.351 301.727 202.509 301.861 202.632C301.995 202.756 302.179 202.817 302.412 202.817ZM307.787 203.882H306.251V195.748H307.787V203.882Z" fill="black"/>
<rect x="14.2632" y="101.266" width="525.473" height="23.2081" fill="#715AFF" stroke="#715AFF" stroke-width="0.526395"/>
<line x1="14.5115" y1="172.417" x2="14.5115" y2="108.894" stroke="#CB9F9F" stroke-opacity="0.4" stroke-width="0.526395"/>
<line x1="373.958" y1="172.417" x2="373.958" y2="101.147" stroke="#CB9F9F" stroke-opacity="0.4" stroke-width="0.526395"/>
<line x1="428.959" y1="172.417" x2="428.959" y2="101.147" stroke="#CB9F9F" stroke-opacity="0.4" stroke-width="0.526395"/>
<line x1="484.735" y1="172.417" x2="484.735" y2="101.147" stroke="#CB9F9F" stroke-opacity="0.4" stroke-width="0.526395"/>
<line x1="539.737" y1="172.417" x2="539.737" y2="101.147" stroke="#CB9F9F" stroke-opacity="0.4" stroke-width="0.526395"/>
<line x1="60.9916" y1="172.417" x2="60.9916" y2="101.147" stroke="#CB9F9F" stroke-opacity="0.4" stroke-width="0.526395"/>
<line y1="-0.263197" x2="71.4199" y2="-0.263197" transform="matrix(0.0128982 -0.999917 0.999999 0.00106342 125.465 172.414)" stroke="#CB9F9F" stroke-opacity="0.4" stroke-width="0.526395"/>
<line x1="217.475" y1="172.417" x2="217.475" y2="101.147" stroke="#CB9F9F" stroke-opacity="0.4" stroke-width="0.526395"/>
<line x1="272.476" y1="172.417" x2="272.476" y2="101.147" stroke="#CB9F9F" stroke-opacity="0.4" stroke-width="0.526395"/>
<line x1="318.956" y1="172.417" x2="318.956" y2="101.147" stroke="#CB9F9F" stroke-opacity="0.4" stroke-width="0.526395"/>
<line x1="14" y1="140.295" x2="539.079" y2="140.295" stroke="#CB9F9F" stroke-opacity="0.4" stroke-width="0.526395"/>
<line x1="14" y1="156.119" x2="539.079" y2="156.119" stroke="#CB9F9F" stroke-opacity="0.4" stroke-width="0.526395"/>
<line x1="14" y1="171.944" x2="539.079" y2="171.944" stroke="#CB9F9F" stroke-opacity="0.4" stroke-width="0.526395"/>
<path d="M20.0851 116.668V110.059H22.1186C22.6996 110.059 23.2186 110.191 23.6755 110.454C24.1355 110.714 24.4941 111.086 24.7513 111.571C25.0085 112.052 25.1371 112.599 25.1371 113.214V113.518C25.1371 114.132 25.01 114.678 24.7558 115.156C24.5047 115.635 24.1491 116.005 23.6891 116.269C23.2292 116.532 22.7102 116.665 22.1322 116.668H20.0851ZM21.4468 111.162V115.574H22.105C22.6376 115.574 23.0446 115.4 23.326 115.052C23.6074 114.704 23.7512 114.206 23.7572 113.559V113.209C23.7572 112.537 23.618 112.029 23.3396 111.684C23.0612 111.336 22.6542 111.162 22.1186 111.162H21.4468ZM28.8909 116.668C28.8304 116.55 28.7865 116.403 28.7593 116.228C28.4416 116.582 28.0285 116.759 27.5201 116.759C27.039 116.759 26.6395 116.62 26.3218 116.341C26.0071 116.063 25.8497 115.712 25.8497 115.288C25.8497 114.768 26.0419 114.368 26.4262 114.09C26.8135 113.811 27.3719 113.671 28.1011 113.668H28.7048V113.386C28.7048 113.159 28.6458 112.978 28.5278 112.842C28.4128 112.705 28.2297 112.637 27.9786 112.637C27.7577 112.637 27.5837 112.69 27.4566 112.796C27.3325 112.902 27.2705 113.047 27.2705 113.232H25.9587C25.9587 112.947 26.0464 112.684 26.222 112.442C26.3975 112.2 26.6456 112.011 26.9664 111.875C27.2871 111.736 27.6472 111.666 28.0467 111.666C28.6519 111.666 29.1315 111.819 29.4855 112.124C29.8426 112.427 30.0212 112.854 30.0212 113.404V115.533C30.0242 115.999 30.0892 116.352 30.2163 116.591V116.668H28.8909ZM27.8061 115.756C27.9998 115.756 28.1783 115.713 28.3417 115.629C28.5051 115.541 28.6261 115.424 28.7048 115.279V114.435H28.2146C27.558 114.435 27.2084 114.662 27.1661 115.116L27.1615 115.193C27.1615 115.356 27.219 115.491 27.334 115.597C27.449 115.703 27.6064 115.756 27.8061 115.756ZM32.5994 110.549V111.757H33.4391V112.719H32.5994V115.17C32.5994 115.352 32.6342 115.482 32.7037 115.56C32.7733 115.639 32.9065 115.678 33.1032 115.678C33.2484 115.678 33.377 115.668 33.489 115.647V116.641C33.2318 116.719 32.967 116.759 32.6947 116.759C31.7748 116.759 31.3057 116.294 31.2876 115.365V112.719H30.5704V111.757H31.2876V110.549H32.5994ZM36.4303 116.759C35.7101 116.759 35.1231 116.538 34.6692 116.096C34.2183 115.654 33.9928 115.066 33.9928 114.33V114.203C33.9928 113.71 34.0882 113.27 34.2788 112.882C34.4694 112.492 34.7388 112.192 35.0868 111.984C35.4378 111.772 35.8372 111.666 36.2851 111.666C36.9569 111.666 37.4849 111.878 37.8692 112.301C38.2566 112.725 38.4502 113.326 38.4502 114.103V114.639H35.3228C35.3652 114.96 35.4923 115.217 35.7041 115.411C35.9189 115.604 36.1898 115.701 36.5166 115.701C37.0219 115.701 37.4168 115.518 37.7013 115.152L38.3458 115.874C38.1491 116.152 37.8828 116.37 37.5469 116.527C37.211 116.682 36.8388 116.759 36.4303 116.759ZM36.2805 112.728C36.0203 112.728 35.8085 112.816 35.6451 112.991C35.4847 113.167 35.3818 113.418 35.3364 113.745H37.1611V113.64C37.1551 113.35 37.0764 113.126 36.9251 112.969C36.7738 112.808 36.5589 112.728 36.2805 112.728Z" fill="white"/>
<path d="M71.8014 114.467C71.7499 115.178 71.4867 115.737 71.0116 116.146C70.5395 116.554 69.9161 116.759 69.1415 116.759C68.2942 116.759 67.6269 116.474 67.1397 115.905C66.6556 115.333 66.4135 114.55 66.4135 113.554V113.15C66.4135 112.515 66.5255 111.955 66.7494 111.471C66.9733 110.987 67.2926 110.616 67.7071 110.359C68.1247 110.098 68.6089 109.968 69.1596 109.968C69.9222 109.968 70.5365 110.173 71.0025 110.581C71.4685 110.99 71.7378 111.563 71.8105 112.301H70.4487C70.4154 111.875 70.2959 111.566 70.0901 111.375C69.8874 111.182 69.5772 111.085 69.1596 111.085C68.7057 111.085 68.3653 111.248 68.1383 111.575C67.9144 111.899 67.7994 112.403 67.7934 113.087V113.586C67.7934 114.3 67.9008 114.822 68.1156 115.152C68.3335 115.482 68.6755 115.647 69.1415 115.647C69.5621 115.647 69.8753 115.551 70.0811 115.361C70.2899 115.167 70.4094 114.869 70.4397 114.467H71.8014ZM73.9937 116.668H72.6774V109.696H73.9937V116.668ZM76.463 116.668H75.1467V111.757H76.463V116.668ZM75.0695 110.486C75.0695 110.289 75.1346 110.127 75.2647 110C75.3978 109.873 75.5779 109.809 75.8048 109.809C76.0288 109.809 76.2073 109.873 76.3404 110C76.4736 110.127 76.5402 110.289 76.5402 110.486C76.5402 110.685 76.4721 110.849 76.3359 110.976C76.2028 111.103 76.0257 111.167 75.8048 111.167C75.5839 111.167 75.4054 111.103 75.2692 110.976C75.1361 110.849 75.0695 110.685 75.0695 110.486ZM79.8083 116.759C79.0881 116.759 78.501 116.538 78.0471 116.096C77.5963 115.654 77.3708 115.066 77.3708 114.33V114.203C77.3708 113.71 77.4661 113.27 77.6568 112.882C77.8474 112.492 78.1167 112.192 78.4647 111.984C78.8158 111.772 79.2152 111.666 79.6631 111.666C80.3348 111.666 80.8629 111.878 81.2472 112.301C81.6345 112.725 81.8282 113.326 81.8282 114.103V114.639H78.7008C78.7431 114.96 78.8702 115.217 79.082 115.411C79.2969 115.604 79.5677 115.701 79.8945 115.701C80.3999 115.701 80.7948 115.518 81.0792 115.152L81.7238 115.874C81.5271 116.152 81.2608 116.37 80.9249 116.527C80.589 116.682 80.2168 116.759 79.8083 116.759ZM79.6585 112.728C79.3983 112.728 79.1864 112.816 79.023 112.991C78.8627 113.167 78.7598 113.418 78.7144 113.745H80.5391V113.64C80.533 113.35 80.4544 113.126 80.3031 112.969C80.1518 112.808 79.9369 112.728 79.6585 112.728ZM83.7845 111.757L83.8254 112.324C84.1764 111.885 84.647 111.666 85.237 111.666C85.7575 111.666 86.1448 111.819 86.399 112.124C86.6532 112.43 86.7833 112.887 86.7894 113.495V116.668H85.4776V113.527C85.4776 113.249 85.4171 113.047 85.296 112.923C85.175 112.796 84.9738 112.733 84.6923 112.733C84.3232 112.733 84.0463 112.89 83.8617 113.205V116.668H82.5499V111.757H83.7845ZM89.3585 110.549V111.757H90.1982V112.719H89.3585V115.17C89.3585 115.352 89.3933 115.482 89.4629 115.56C89.5325 115.639 89.6657 115.678 89.8624 115.678C90.0076 115.678 90.1362 115.668 90.2482 115.647V116.641C89.991 116.719 89.7262 116.759 89.4538 116.759C88.5339 116.759 88.0649 116.294 88.0467 115.365V112.719H87.3295V111.757H88.0467V110.549H89.3585ZM98.7045 116.668H97.3427L94.6919 112.32V116.668H93.3302V110.059H94.6919L97.3473 114.417V110.059H98.7045V116.668ZM102.653 116.668C102.593 116.55 102.549 116.403 102.522 116.228C102.204 116.582 101.791 116.759 101.283 116.759C100.802 116.759 100.402 116.62 100.084 116.341C99.7696 116.063 99.6123 115.712 99.6123 115.288C99.6123 114.768 99.8044 114.368 100.189 114.09C100.576 113.811 101.134 113.671 101.864 113.668H102.467V113.386C102.467 113.159 102.408 112.978 102.29 112.842C102.175 112.705 101.992 112.637 101.741 112.637C101.52 112.637 101.346 112.69 101.219 112.796C101.095 112.902 101.033 113.047 101.033 113.232H99.7212C99.7212 112.947 99.809 112.684 99.9845 112.442C100.16 112.2 100.408 112.011 100.729 111.875C101.05 111.736 101.41 111.666 101.809 111.666C102.414 111.666 102.894 111.819 103.248 112.124C103.605 112.427 103.784 112.854 103.784 113.404V115.533C103.787 115.999 103.852 116.352 103.979 116.591V116.668H102.653ZM101.569 115.756C101.762 115.756 101.941 115.713 102.104 115.629C102.268 115.541 102.389 115.424 102.467 115.279V114.435H101.977C101.32 114.435 100.971 114.662 100.929 115.116L100.924 115.193C100.924 115.356 100.982 115.491 101.097 115.597C101.212 115.703 101.369 115.756 101.569 115.756ZM106.021 111.757L106.062 112.306C106.41 111.879 106.881 111.666 107.474 111.666C108.106 111.666 108.541 111.916 108.777 112.415C109.122 111.916 109.613 111.666 110.252 111.666C110.784 111.666 111.181 111.822 111.441 112.133C111.701 112.442 111.831 112.908 111.831 113.531V116.668H110.515V113.536C110.515 113.258 110.461 113.055 110.352 112.928C110.243 112.798 110.051 112.733 109.775 112.733C109.382 112.733 109.11 112.92 108.958 113.295L108.963 116.668H107.651V113.541C107.651 113.256 107.595 113.05 107.483 112.923C107.371 112.796 107.18 112.733 106.911 112.733C106.539 112.733 106.27 112.887 106.103 113.196V116.668H104.791V111.757H106.021ZM115.104 116.759C114.384 116.759 113.797 116.538 113.343 116.096C112.892 115.654 112.667 115.066 112.667 114.33V114.203C112.667 113.71 112.762 113.27 112.953 112.882C113.143 112.492 113.413 112.192 113.761 111.984C114.112 111.772 114.511 111.666 114.959 111.666C115.631 111.666 116.159 111.878 116.543 112.301C116.93 112.725 117.124 113.326 117.124 114.103V114.639H113.997C114.039 114.96 114.166 115.217 114.378 115.411C114.593 115.604 114.864 115.701 115.19 115.701C115.696 115.701 116.091 115.518 116.375 115.152L117.02 115.874C116.823 116.152 116.557 116.37 116.221 116.527C115.885 116.682 115.513 116.759 115.104 116.759ZM114.954 112.728C114.694 112.728 114.482 112.816 114.319 112.991C114.159 113.167 114.056 113.418 114.01 113.745H115.835V113.64C115.829 113.35 115.75 113.126 115.599 112.969C115.448 112.808 115.233 112.728 114.954 112.728Z" fill="white"/>
<path d="M132.458 115.129V117.458H131.096V110.849H133.674C134.171 110.849 134.606 110.94 134.982 111.121C135.36 111.303 135.65 111.562 135.853 111.898C136.056 112.231 136.157 112.61 136.157 113.037C136.157 113.685 135.935 114.196 135.49 114.571C135.048 114.943 134.435 115.129 133.652 115.129H132.458ZM132.458 114.026H133.674C134.034 114.026 134.308 113.942 134.496 113.772C134.687 113.603 134.782 113.361 134.782 113.046C134.782 112.722 134.687 112.46 134.496 112.261C134.305 112.061 134.042 111.958 133.706 111.952H132.458V114.026ZM139.77 113.777C139.592 113.753 139.434 113.741 139.298 113.741C138.802 113.741 138.477 113.908 138.322 114.244V117.458H137.011V112.547H138.25L138.286 113.132C138.549 112.681 138.914 112.456 139.38 112.456C139.525 112.456 139.661 112.476 139.789 112.515L139.77 113.777ZM140.038 114.957C140.038 114.47 140.132 114.036 140.32 113.654C140.507 113.273 140.777 112.978 141.128 112.769C141.482 112.56 141.892 112.456 142.358 112.456C143.02 112.456 143.561 112.659 143.978 113.064C144.399 113.47 144.633 114.02 144.682 114.716L144.691 115.052C144.691 115.806 144.48 116.411 144.06 116.868C143.639 117.322 143.075 117.549 142.367 117.549C141.659 117.549 141.093 117.322 140.669 116.868C140.248 116.414 140.038 115.797 140.038 115.016V114.957ZM141.35 115.052C141.35 115.518 141.438 115.875 141.613 116.124C141.789 116.369 142.04 116.491 142.367 116.491C142.684 116.491 142.933 116.37 143.111 116.128C143.29 115.883 143.379 115.493 143.379 114.957C143.379 114.5 143.29 114.146 143.111 113.895C142.933 113.644 142.681 113.518 142.358 113.518C142.037 113.518 141.789 113.644 141.613 113.895C141.438 114.143 141.35 114.529 141.35 115.052ZM145.294 114.966C145.294 114.2 145.465 113.591 145.807 113.137C146.152 112.683 146.623 112.456 147.219 112.456C147.697 112.456 148.092 112.634 148.404 112.992V110.486H149.72V117.458H148.535L148.472 116.936C148.145 117.345 147.724 117.549 147.21 117.549C146.632 117.549 146.167 117.322 145.816 116.868C145.468 116.411 145.294 115.777 145.294 114.966ZM146.606 115.061C146.606 115.521 146.686 115.874 146.847 116.119C147.007 116.364 147.24 116.487 147.546 116.487C147.951 116.487 148.237 116.316 148.404 115.974V114.036C148.24 113.694 147.957 113.523 147.555 113.523C146.922 113.523 146.606 114.036 146.606 115.061ZM153.678 116.959C153.354 117.352 152.906 117.549 152.335 117.549C151.808 117.549 151.406 117.397 151.127 117.095C150.852 116.792 150.711 116.349 150.705 115.765V112.547H152.017V115.72C152.017 116.231 152.25 116.487 152.716 116.487C153.161 116.487 153.466 116.332 153.633 116.024V112.547H154.949V117.458H153.714L153.678 116.959ZM157.981 116.491C158.223 116.491 158.42 116.425 158.571 116.291C158.723 116.158 158.801 115.981 158.807 115.76H160.037C160.034 116.093 159.944 116.399 159.765 116.677C159.586 116.953 159.341 117.168 159.03 117.322C158.721 117.473 158.379 117.549 158.004 117.549C157.302 117.549 156.748 117.326 156.343 116.882C155.937 116.434 155.734 115.816 155.734 115.03V114.943C155.734 114.187 155.936 113.583 156.338 113.132C156.74 112.681 157.293 112.456 157.995 112.456C158.609 112.456 159.101 112.631 159.47 112.982C159.842 113.33 160.031 113.795 160.037 114.376H158.807C158.801 114.122 158.723 113.916 158.571 113.759C158.42 113.598 158.22 113.518 157.972 113.518C157.666 113.518 157.435 113.63 157.278 113.854C157.123 114.075 157.046 114.435 157.046 114.934V115.07C157.046 115.576 157.123 115.939 157.278 116.16C157.432 116.381 157.666 116.491 157.981 116.491ZM162.357 111.339V112.547H163.197V113.509H162.357V115.96C162.357 116.142 162.392 116.272 162.461 116.35C162.531 116.429 162.664 116.468 162.861 116.468C163.006 116.468 163.135 116.458 163.246 116.437V117.431C162.989 117.509 162.724 117.549 162.452 117.549C161.532 117.549 161.063 117.084 161.045 116.155V113.509H160.328V112.547H161.045V111.339H162.357Z" fill="white"/>
<path d="M224.639 114.339V116.668H223.277V110.059H225.855C226.351 110.059 226.787 110.15 227.162 110.331C227.54 110.513 227.831 110.772 228.034 111.108C228.236 111.44 228.338 111.82 228.338 112.247C228.338 112.894 228.115 113.406 227.671 113.781C227.229 114.153 226.616 114.339 225.832 114.339H224.639ZM224.639 113.236H225.855C226.215 113.236 226.489 113.152 226.677 112.982C226.867 112.813 226.963 112.571 226.963 112.256C226.963 111.932 226.867 111.67 226.677 111.471C226.486 111.271 226.223 111.168 225.887 111.162H224.639V113.236ZM231.951 112.987C231.772 112.963 231.615 112.95 231.479 112.95C230.983 112.95 230.657 113.118 230.503 113.454V116.668H229.191V111.757H230.43L230.467 112.342C230.73 111.891 231.095 111.666 231.561 111.666C231.706 111.666 231.842 111.686 231.969 111.725L231.951 112.987ZM233.971 116.668H232.655V111.757H233.971V116.668ZM232.577 110.486C232.577 110.289 232.642 110.127 232.773 110C232.906 109.873 233.086 109.809 233.313 109.809C233.537 109.809 233.715 109.873 233.848 110C233.981 110.127 234.048 110.289 234.048 110.486C234.048 110.685 233.98 110.849 233.844 110.976C233.711 111.103 233.534 111.167 233.313 111.167C233.092 111.167 232.913 111.103 232.777 110.976C232.644 110.849 232.577 110.685 232.577 110.486ZM237.098 115.701C237.34 115.701 237.537 115.635 237.688 115.501C237.84 115.368 237.918 115.191 237.924 114.97H239.154C239.151 115.303 239.061 115.609 238.882 115.887C238.704 116.163 238.458 116.377 238.147 116.532C237.838 116.683 237.496 116.759 237.121 116.759C236.419 116.759 235.865 116.536 235.46 116.092C235.054 115.644 234.851 115.026 234.851 114.24V114.153C234.851 113.397 235.053 112.793 235.455 112.342C235.858 111.891 236.41 111.666 237.112 111.666C237.726 111.666 238.218 111.841 238.587 112.192C238.959 112.54 239.148 113.005 239.154 113.586H237.924C237.918 113.332 237.84 113.126 237.688 112.969C237.537 112.808 237.337 112.728 237.089 112.728C236.784 112.728 236.552 112.84 236.395 113.064C236.24 113.285 236.163 113.645 236.163 114.144V114.28C236.163 114.786 236.24 115.149 236.395 115.37C236.549 115.591 236.784 115.701 237.098 115.701ZM242.164 116.759C241.444 116.759 240.857 116.538 240.403 116.096C239.952 115.654 239.726 115.066 239.726 114.33V114.203C239.726 113.71 239.822 113.27 240.012 112.882C240.203 112.492 240.472 112.192 240.82 111.984C241.171 111.772 241.571 111.666 242.019 111.666C242.69 111.666 243.218 111.878 243.603 112.301C243.99 112.725 244.184 113.326 244.184 114.103V114.639H241.056C241.099 114.96 241.226 115.217 241.438 115.411C241.652 115.604 241.923 115.701 242.25 115.701C242.755 115.701 243.15 115.518 243.435 115.152L244.079 115.874C243.883 116.152 243.616 116.37 243.28 116.527C242.945 116.682 242.572 116.759 242.164 116.759ZM242.014 112.728C241.754 112.728 241.542 112.816 241.379 112.991C241.218 113.167 241.115 113.418 241.07 113.745H242.895V113.64C242.889 113.35 242.81 113.126 242.659 112.969C242.507 112.808 242.292 112.728 242.014 112.728Z" fill="white"/>
<path d="M283.362 113.513C283.362 114.131 283.262 114.668 283.063 115.125C282.863 115.579 282.586 115.943 282.232 116.219L283.33 117.081L282.464 117.848L281.056 116.718C280.896 116.745 280.73 116.759 280.557 116.759C280.009 116.759 279.521 116.627 279.091 116.364C278.661 116.101 278.328 115.725 278.092 115.238C277.856 114.748 277.737 114.185 277.734 113.55V113.223C277.734 112.572 277.85 112 278.083 111.507C278.319 111.011 278.651 110.631 279.077 110.368C279.507 110.101 279.997 109.968 280.548 109.968C281.099 109.968 281.587 110.101 282.014 110.368C282.444 110.631 282.775 111.011 283.008 111.507C283.244 112 283.362 112.571 283.362 113.218V113.513ZM281.982 113.214C281.982 112.521 281.858 111.994 281.61 111.634C281.362 111.274 281.008 111.094 280.548 111.094C280.091 111.094 279.739 111.273 279.49 111.63C279.242 111.984 279.117 112.504 279.114 113.191V113.513C279.114 114.188 279.238 114.712 279.486 115.084C279.734 115.456 280.091 115.642 280.557 115.642C281.014 115.642 281.365 115.464 281.61 115.107C281.855 114.746 281.979 114.223 281.982 113.536V113.214ZM285.482 111.757L285.523 112.324C285.874 111.885 286.344 111.666 286.935 111.666C287.455 111.666 287.842 111.819 288.097 112.124C288.351 112.43 288.481 112.887 288.487 113.495V116.668H287.175V113.527C287.175 113.249 287.115 113.047 286.994 112.923C286.872 112.796 286.671 112.733 286.39 112.733C286.021 112.733 285.744 112.89 285.559 113.205V116.668H284.247V111.757H285.482ZM291.056 110.549V111.757H291.896V112.719H291.056V115.17C291.056 115.352 291.091 115.482 291.16 115.56C291.23 115.639 291.363 115.678 291.56 115.678C291.705 115.678 291.834 115.668 291.946 115.647V116.641C291.688 116.719 291.424 116.759 291.151 116.759C290.231 116.759 289.762 116.294 289.744 115.365V112.719H289.027V111.757H289.744V110.549H291.056ZM294.46 114.811L295.368 111.757H296.775L294.801 117.431L294.692 117.689C294.398 118.331 293.914 118.652 293.239 118.652C293.049 118.652 292.855 118.623 292.658 118.565V117.571L292.858 117.576C293.106 117.576 293.291 117.538 293.412 117.462C293.536 117.387 293.633 117.261 293.702 117.086L293.857 116.682L292.136 111.757H293.548L294.46 114.811Z" fill="white"/>
<path d="M327.852 114.934C327.852 114.677 327.761 114.48 327.579 114.344C327.398 114.205 327.071 114.06 326.599 113.908C326.127 113.754 325.753 113.603 325.478 113.454C324.727 113.049 324.352 112.503 324.352 111.816C324.352 111.459 324.452 111.141 324.652 110.862C324.854 110.581 325.143 110.362 325.519 110.204C325.897 110.047 326.32 109.968 326.789 109.968C327.262 109.968 327.682 110.055 328.051 110.227C328.421 110.396 328.706 110.637 328.909 110.949C329.115 111.26 329.218 111.614 329.218 112.011H327.856C327.856 111.708 327.761 111.474 327.57 111.307C327.38 111.138 327.112 111.053 326.767 111.053C326.434 111.053 326.175 111.124 325.991 111.266C325.806 111.406 325.714 111.59 325.714 111.82C325.714 112.035 325.821 112.215 326.036 112.36C326.254 112.506 326.573 112.642 326.994 112.769C327.768 113.002 328.333 113.291 328.687 113.636C329.041 113.981 329.218 114.411 329.218 114.925C329.218 115.497 329.002 115.946 328.569 116.273C328.136 116.597 327.554 116.759 326.821 116.759C326.313 116.759 325.85 116.666 325.432 116.482C325.015 116.294 324.695 116.039 324.475 115.715C324.257 115.391 324.148 115.016 324.148 114.589H325.514C325.514 115.318 325.95 115.683 326.821 115.683C327.145 115.683 327.398 115.618 327.579 115.488C327.761 115.355 327.852 115.17 327.852 114.934ZM332.904 116.668C332.843 116.55 332.799 116.403 332.772 116.228C332.454 116.582 332.041 116.759 331.533 116.759C331.052 116.759 330.652 116.62 330.334 116.341C330.02 116.063 329.862 115.712 329.862 115.288C329.862 114.768 330.055 114.368 330.439 114.09C330.826 113.811 331.385 113.671 332.114 113.668H332.718V113.386C332.718 113.159 332.658 112.978 332.54 112.842C332.425 112.705 332.242 112.637 331.991 112.637C331.77 112.637 331.596 112.69 331.469 112.796C331.345 112.902 331.283 113.047 331.283 113.232H329.971C329.971 112.947 330.059 112.684 330.235 112.442C330.41 112.2 330.658 112.011 330.979 111.875C331.3 111.736 331.66 111.666 332.059 111.666C332.665 111.666 333.144 111.819 333.498 112.124C333.855 112.427 334.034 112.854 334.034 113.404V115.533C334.037 115.999 334.102 116.352 334.229 116.591V116.668H332.904ZM331.819 115.756C332.012 115.756 332.191 115.713 332.354 115.629C332.518 115.541 332.639 115.424 332.718 115.279V114.435H332.227C331.571 114.435 331.221 114.662 331.179 115.116L331.174 115.193C331.174 115.356 331.232 115.491 331.347 115.597C331.462 115.703 331.619 115.756 331.819 115.756ZM336.426 116.668H335.11V109.696H336.426V116.668ZM339.771 116.759C339.051 116.759 338.464 116.538 338.01 116.096C337.559 115.654 337.334 115.066 337.334 114.33V114.203C337.334 113.71 337.429 113.27 337.62 112.882C337.81 112.492 338.08 112.192 338.428 111.984C338.779 111.772 339.178 111.666 339.626 111.666C340.298 111.666 340.826 111.878 341.21 112.301C341.597 112.725 341.791 113.326 341.791 114.103V114.639H338.664C338.706 114.96 338.833 115.217 339.045 115.411C339.26 115.604 339.531 115.701 339.857 115.701C340.363 115.701 340.758 115.518 341.042 115.152L341.687 115.874C341.49 116.152 341.224 116.37 340.888 116.527C340.552 116.682 340.18 116.759 339.771 116.759ZM339.621 112.728C339.361 112.728 339.149 112.816 338.986 112.991C338.826 113.167 338.723 113.418 338.677 113.745H340.502V113.64C340.496 113.35 340.417 113.126 340.266 112.969C340.115 112.808 339.9 112.728 339.621 112.728Z" fill="white"/>
<path d="M381.056 114.339V116.668H379.695V110.059H382.273C382.769 110.059 383.205 110.15 383.58 110.331C383.958 110.513 384.249 110.772 384.452 111.108C384.654 111.44 384.756 111.82 384.756 112.247C384.756 112.894 384.533 113.406 384.088 113.781C383.647 114.153 383.034 114.339 382.25 114.339H381.056ZM381.056 113.236H382.273C382.633 113.236 382.907 113.152 383.094 112.982C383.285 112.813 383.38 112.571 383.38 112.256C383.38 111.932 383.285 111.67 383.094 111.471C382.904 111.271 382.641 111.168 382.305 111.162H381.056V113.236ZM388.55 116.169C388.227 116.562 387.779 116.759 387.207 116.759C386.68 116.759 386.278 116.607 385.999 116.305C385.724 116.002 385.583 115.559 385.577 114.975V111.757H386.889V114.93C386.889 115.441 387.122 115.697 387.588 115.697C388.033 115.697 388.339 115.542 388.505 115.234V111.757H389.821V116.668H388.587L388.55 116.169ZM393.571 112.987C393.392 112.963 393.235 112.95 393.099 112.95C392.602 112.95 392.277 113.118 392.123 113.454V116.668H390.811V111.757H392.05L392.086 112.342C392.35 111.891 392.714 111.666 393.18 111.666C393.326 111.666 393.462 111.686 393.589 111.725L393.571 112.987ZM396.158 115.701C396.4 115.701 396.597 115.635 396.748 115.501C396.899 115.368 396.978 115.191 396.984 114.97H398.214C398.211 115.303 398.12 115.609 397.942 115.887C397.763 116.163 397.518 116.377 397.206 116.532C396.898 116.683 396.556 116.759 396.181 116.759C395.479 116.759 394.925 116.536 394.519 116.092C394.114 115.644 393.911 115.026 393.911 114.24V114.153C393.911 113.397 394.112 112.793 394.515 112.342C394.917 111.891 395.469 111.666 396.172 111.666C396.786 111.666 397.278 111.841 397.647 112.192C398.019 112.54 398.208 113.005 398.214 113.586H396.984C396.978 113.332 396.899 113.126 396.748 112.969C396.597 112.808 396.397 112.728 396.149 112.728C395.843 112.728 395.612 112.84 395.454 113.064C395.3 113.285 395.223 113.645 395.223 114.144V114.28C395.223 114.786 395.3 115.149 395.454 115.37C395.609 115.591 395.843 115.701 396.158 115.701ZM400.243 112.292C400.591 111.875 401.028 111.666 401.555 111.666C402.62 111.666 403.16 112.285 403.175 113.522V116.668H401.864V113.559C401.864 113.277 401.803 113.07 401.682 112.937C401.561 112.801 401.36 112.733 401.078 112.733C400.694 112.733 400.416 112.881 400.243 113.177V116.668H398.931V109.696H400.243V112.292ZM407.011 116.668C406.95 116.55 406.906 116.403 406.879 116.228C406.561 116.582 406.148 116.759 405.64 116.759C405.159 116.759 404.759 116.62 404.442 116.341C404.127 116.063 403.97 115.712 403.97 115.288C403.97 114.768 404.162 114.368 404.546 114.09C404.933 113.811 405.492 113.671 406.221 113.668H406.825V113.386C406.825 113.159 406.766 112.978 406.648 112.842C406.533 112.705 406.35 112.637 406.098 112.637C405.878 112.637 405.704 112.69 405.576 112.796C405.452 112.902 405.39 113.047 405.39 113.232H404.079C404.079 112.947 404.166 112.684 404.342 112.442C404.517 112.2 404.765 112.011 405.086 111.875C405.407 111.736 405.767 111.666 406.167 111.666C406.772 111.666 407.251 111.819 407.605 112.124C407.963 112.427 408.141 112.854 408.141 113.404V115.533C408.144 115.999 408.209 116.352 408.336 116.591V116.668H407.011ZM405.926 115.756C406.12 115.756 406.298 115.713 406.462 115.629C406.625 115.541 406.746 115.424 406.825 115.279V114.435H406.334C405.678 114.435 405.328 114.662 405.286 115.116L405.281 115.193C405.281 115.356 405.339 115.491 405.454 115.597C405.569 115.703 405.726 115.756 405.926 115.756ZM411.809 115.311C411.809 115.15 411.728 115.025 411.568 114.934C411.411 114.84 411.157 114.757 410.805 114.684C409.637 114.439 409.053 113.943 409.053 113.196C409.053 112.76 409.233 112.397 409.594 112.106C409.957 111.813 410.43 111.666 411.014 111.666C411.638 111.666 412.135 111.813 412.508 112.106C412.883 112.4 413.07 112.781 413.07 113.25H411.759C411.759 113.062 411.698 112.908 411.577 112.787C411.456 112.663 411.267 112.601 411.01 112.601C410.789 112.601 410.618 112.651 410.497 112.751C410.376 112.851 410.315 112.978 410.315 113.132C410.315 113.277 410.383 113.395 410.52 113.486C410.659 113.574 410.892 113.651 411.219 113.718C411.545 113.781 411.821 113.854 412.045 113.935C412.738 114.19 413.084 114.63 413.084 115.256C413.084 115.704 412.892 116.067 412.508 116.346C412.123 116.621 411.627 116.759 411.019 116.759C410.607 116.759 410.241 116.686 409.92 116.541C409.603 116.393 409.353 116.191 409.171 115.937C408.99 115.68 408.899 115.403 408.899 115.107H410.143C410.155 115.34 410.241 115.518 410.402 115.642C410.562 115.766 410.777 115.828 411.046 115.828C411.297 115.828 411.486 115.781 411.613 115.688C411.744 115.591 411.809 115.465 411.809 115.311ZM416.193 116.759C415.473 116.759 414.886 116.538 414.432 116.096C413.981 115.654 413.756 115.066 413.756 114.33V114.203C413.756 113.71 413.851 113.27 414.042 112.882C414.232 112.492 414.502 112.192 414.85 111.984C415.201 111.772 415.6 111.666 416.048 111.666C416.72 111.666 417.248 111.878 417.632 112.301C418.02 112.725 418.213 113.326 418.213 114.103V114.639H415.086C415.128 114.96 415.255 115.217 415.467 115.411C415.682 115.604 415.953 115.701 416.28 115.701C416.785 115.701 417.18 115.518 417.464 115.152L418.109 115.874C417.912 116.152 417.646 116.37 417.31 116.527C416.974 116.682 416.602 116.759 416.193 116.759ZM416.044 112.728C415.783 112.728 415.572 112.816 415.408 112.991C415.248 113.167 415.145 113.418 415.099 113.745H416.924V113.64C416.918 113.35 416.839 113.126 416.688 112.969C416.537 112.808 416.322 112.728 416.044 112.728Z" fill="white"/>
<path d="M440.154 114.467C440.103 115.178 439.84 115.737 439.365 116.146C438.893 116.554 438.269 116.759 437.494 116.759C436.647 116.759 435.98 116.474 435.493 115.905C435.009 115.333 434.766 114.55 434.766 113.554V113.15C434.766 112.515 434.878 111.955 435.102 111.471C435.326 110.987 435.646 110.616 436.06 110.359C436.478 110.098 436.962 109.968 437.513 109.968C438.275 109.968 438.889 110.173 439.355 110.581C439.822 110.99 440.091 111.563 440.163 112.301H438.802C438.768 111.875 438.649 111.566 438.443 111.375C438.24 111.182 437.93 111.085 437.513 111.085C437.059 111.085 436.718 111.248 436.491 111.575C436.267 111.899 436.152 112.403 436.146 113.087V113.586C436.146 114.3 436.254 114.822 436.469 115.152C436.687 115.482 437.028 115.647 437.494 115.647C437.915 115.647 438.228 115.551 438.434 115.361C438.643 115.167 438.762 114.869 438.793 114.467H440.154ZM443.808 116.668C443.748 116.55 443.704 116.403 443.677 116.228C443.359 116.582 442.946 116.759 442.438 116.759C441.956 116.759 441.557 116.62 441.239 116.341C440.925 116.063 440.767 115.712 440.767 115.288C440.767 114.768 440.959 114.368 441.344 114.09C441.731 113.811 442.289 113.671 443.019 113.668H443.622V113.386C443.622 113.159 443.563 112.978 443.445 112.842C443.33 112.705 443.147 112.637 442.896 112.637C442.675 112.637 442.501 112.69 442.374 112.796C442.25 112.902 442.188 113.047 442.188 113.232H440.876C440.876 112.947 440.964 112.684 441.139 112.442C441.315 112.2 441.563 112.011 441.884 111.875C442.205 111.736 442.565 111.666 442.964 111.666C443.569 111.666 444.049 111.819 444.403 112.124C444.76 112.427 444.939 112.854 444.939 113.404V115.533C444.942 115.999 445.007 116.352 445.134 116.591V116.668H443.808ZM442.723 115.756C442.917 115.756 443.096 115.713 443.259 115.629C443.423 115.541 443.544 115.424 443.622 115.279V114.435H443.132C442.475 114.435 442.126 114.662 442.083 115.116L442.079 115.193C442.079 115.356 442.136 115.491 442.251 115.597C442.366 115.703 442.524 115.756 442.723 115.756ZM448.606 115.311C448.606 115.15 448.526 115.025 448.366 114.934C448.208 114.84 447.954 114.757 447.603 114.684C446.435 114.439 445.851 113.943 445.851 113.196C445.851 112.76 446.031 112.397 446.391 112.106C446.754 111.813 447.228 111.666 447.812 111.666C448.435 111.666 448.933 111.813 449.305 112.106C449.68 112.4 449.868 112.781 449.868 113.25H448.556C448.556 113.062 448.496 112.908 448.375 112.787C448.254 112.663 448.064 112.601 447.807 112.601C447.586 112.601 447.415 112.651 447.294 112.751C447.173 112.851 447.113 112.978 447.113 113.132C447.113 113.277 447.181 113.395 447.317 113.486C447.456 113.574 447.689 113.651 448.016 113.718C448.343 113.781 448.618 113.854 448.842 113.935C449.535 114.19 449.882 114.63 449.882 115.256C449.882 115.704 449.689 116.067 449.305 116.346C448.921 116.621 448.425 116.759 447.816 116.759C447.405 116.759 447.039 116.686 446.718 116.541C446.4 116.393 446.15 116.191 445.969 115.937C445.787 115.68 445.697 115.403 445.697 115.107H446.94C446.952 115.34 447.039 115.518 447.199 115.642C447.359 115.766 447.574 115.828 447.844 115.828C448.095 115.828 448.284 115.781 448.411 115.688C448.541 115.591 448.606 115.465 448.606 115.311ZM452.01 112.292C452.358 111.875 452.796 111.666 453.322 111.666C454.387 111.666 454.928 112.285 454.943 113.522V116.668H453.631V113.559C453.631 113.277 453.57 113.07 453.449 112.937C453.328 112.801 453.127 112.733 452.846 112.733C452.461 112.733 452.183 112.881 452.01 113.177V116.668H450.699V109.696H452.01V112.292Z" fill="white"/>
<path d="M495.427 114.467C495.376 115.178 495.112 115.737 494.637 116.146C494.165 116.554 493.542 116.759 492.767 116.759C491.92 116.759 491.253 116.474 490.765 115.905C490.281 115.333 490.039 114.55 490.039 113.554V113.15C490.039 112.515 490.151 111.955 490.375 111.471C490.599 110.987 490.918 110.616 491.333 110.359C491.75 110.098 492.235 109.968 492.785 109.968C493.548 109.968 494.162 110.173 494.628 110.581C495.094 110.99 495.363 111.563 495.436 112.301H494.074C494.041 111.875 493.922 111.566 493.716 111.375C493.513 111.182 493.203 111.085 492.785 111.085C492.331 111.085 491.991 111.248 491.764 111.575C491.54 111.899 491.425 112.403 491.419 113.087V113.586C491.419 114.3 491.526 114.822 491.741 115.152C491.959 115.482 492.301 115.647 492.767 115.647C493.188 115.647 493.501 115.551 493.707 115.361C493.916 115.167 494.035 114.869 494.065 114.467H495.427ZM498.995 112.987C498.816 112.963 498.659 112.95 498.523 112.95C498.026 112.95 497.701 113.118 497.547 113.454V116.668H496.235V111.757H497.474L497.51 112.342C497.774 111.891 498.138 111.666 498.604 111.666C498.75 111.666 498.886 111.686 499.013 111.725L498.995 112.987ZM501.8 116.759C501.08 116.759 500.493 116.538 500.039 116.096C499.588 115.654 499.362 115.066 499.362 114.33V114.203C499.362 113.71 499.458 113.27 499.648 112.882C499.839 112.492 500.108 112.192 500.456 111.984C500.807 111.772 501.207 111.666 501.655 111.666C502.326 111.666 502.854 111.878 503.239 112.301C503.626 112.725 503.82 113.326 503.82 114.103V114.639H500.692C500.735 114.96 500.862 115.217 501.074 115.411C501.288 115.604 501.559 115.701 501.886 115.701C502.391 115.701 502.786 115.518 503.071 115.152L503.715 115.874C503.519 116.152 503.252 116.37 502.916 116.527C502.581 116.682 502.208 116.759 501.8 116.759ZM501.65 112.728C501.39 112.728 501.178 112.816 501.015 112.991C500.854 113.167 500.751 113.418 500.706 113.745H502.531V113.64C502.525 113.35 502.446 113.126 502.295 112.969C502.143 112.808 501.928 112.728 501.65 112.728ZM504.364 114.176C504.364 113.41 504.535 112.801 504.877 112.347C505.222 111.893 505.693 111.666 506.289 111.666C506.767 111.666 507.162 111.844 507.474 112.202V109.696H508.79V116.668H507.605L507.542 116.146C507.215 116.554 506.794 116.759 506.28 116.759C505.702 116.759 505.237 116.532 504.886 116.078C504.538 115.621 504.364 114.987 504.364 114.176ZM505.676 114.271C505.676 114.731 505.756 115.084 505.917 115.329C506.077 115.574 506.31 115.697 506.616 115.697C507.021 115.697 507.307 115.526 507.474 115.184V113.246C507.31 112.904 507.027 112.733 506.625 112.733C505.992 112.733 505.676 113.246 505.676 114.271ZM511.191 116.668H509.875V111.757H511.191V116.668ZM509.798 110.486C509.798 110.289 509.863 110.127 509.993 110C510.126 109.873 510.306 109.809 510.533 109.809C510.757 109.809 510.936 109.873 511.069 110C511.202 110.127 511.268 110.289 511.268 110.486C511.268 110.685 511.2 110.849 511.064 110.976C510.931 111.103 510.754 111.167 510.533 111.167C510.312 111.167 510.134 111.103 509.997 110.976C509.864 110.849 509.798 110.685 509.798 110.486ZM513.847 110.549V111.757H514.686V112.719H513.847V115.17C513.847 115.352 513.881 115.482 513.951 115.56C514.021 115.639 514.154 115.678 514.35 115.678C514.496 115.678 514.624 115.668 514.736 115.647V116.641C514.479 116.719 514.214 116.759 513.942 116.759C513.022 116.759 512.553 116.294 512.535 115.365V112.719H511.818V111.757H512.535V110.549H513.847Z" fill="white"/>
<path d="M18.3068 135.261H17.6033V130.597L16.1924 131.115V130.48L18.1971 129.727H18.3068V135.261ZM21.3745 132.167H21.9003C22.2306 132.162 22.4903 132.075 22.6795 131.906C22.8686 131.737 22.9632 131.508 22.9632 131.221C22.9632 130.575 22.6416 130.253 21.9986 130.253C21.696 130.253 21.4539 130.34 21.2723 130.514C21.0933 130.685 21.0038 130.913 21.0038 131.198H20.304C20.304 130.762 20.4629 130.4 20.7806 130.113C21.1009 129.823 21.5069 129.678 21.9986 129.678C22.5181 129.678 22.9253 129.815 23.2204 130.09C23.5154 130.365 23.6629 130.747 23.6629 131.236C23.6629 131.476 23.5848 131.708 23.4284 131.932C23.2746 132.157 23.064 132.324 22.7967 132.435C23.0993 132.531 23.3326 132.69 23.4965 132.912C23.6629 133.134 23.7461 133.405 23.7461 133.725C23.7461 134.219 23.5848 134.611 23.262 134.901C22.9392 135.191 22.5193 135.336 22.0024 135.336C21.4854 135.336 21.0643 135.196 20.739 134.917C20.4162 134.637 20.2548 134.267 20.2548 133.808H20.9584C20.9584 134.098 21.053 134.33 21.2421 134.504C21.4312 134.678 21.6846 134.765 22.0024 134.765C22.3403 134.765 22.5988 134.677 22.7778 134.5C22.9568 134.324 23.0464 134.07 23.0464 133.74C23.0464 133.42 22.948 133.174 22.7513 133.003C22.5546 132.831 22.2709 132.743 21.9003 132.738H21.3745V132.167ZM24.9187 135.734H24.3173L26.6171 129.753H27.2148L24.9187 135.734ZM30.8536 133.411H31.6177V133.982H30.8536V135.261H30.15V133.982H27.6422V133.57L30.1084 129.753H30.8536V133.411ZM28.4365 133.411H30.15V130.71L30.0668 130.862L28.4365 133.411ZM32.4612 135.734H31.8597L34.1595 129.753H34.7572L32.4612 135.734ZM39.0504 135.261H35.4418V134.758L37.3482 132.639C37.6307 132.319 37.8248 132.059 37.9308 131.86C38.0392 131.658 38.0934 131.45 38.0934 131.236C38.0934 130.949 38.0064 130.713 37.8324 130.529C37.6584 130.345 37.4264 130.253 37.1364 130.253C36.7884 130.253 36.5173 130.352 36.3232 130.551C36.1315 130.748 36.0357 131.023 36.0357 131.376H35.3359C35.3359 130.869 35.4986 130.459 35.8239 130.147C36.1517 129.834 36.5892 129.678 37.1364 129.678C37.6483 129.678 38.0531 129.813 38.3506 130.082C38.6482 130.35 38.797 130.707 38.797 131.153C38.797 131.695 38.4515 132.341 37.7605 133.09L36.2853 134.69H39.0504V135.261ZM43.2452 132.912C43.2452 133.731 43.1053 134.34 42.8254 134.739C42.5455 135.137 42.108 135.336 41.5128 135.336C40.9253 135.336 40.4903 135.142 40.2079 134.754C39.9254 134.363 39.7792 133.78 39.7691 133.006V132.072C39.7691 131.263 39.909 130.661 40.1889 130.268C40.4688 129.874 40.9076 129.678 41.5053 129.678C42.0979 129.678 42.5341 129.868 42.814 130.249C43.0939 130.627 43.2377 131.212 43.2452 132.004V132.912ZM42.5455 131.955C42.5455 131.362 42.4623 130.931 42.2958 130.661C42.1294 130.389 41.8659 130.253 41.5053 130.253C41.1472 130.253 40.8862 130.388 40.7223 130.657C40.5584 130.927 40.4739 131.342 40.4688 131.902V133.021C40.4688 133.617 40.5546 134.057 40.7261 134.342C40.9001 134.624 41.1623 134.765 41.5128 134.765C41.8583 134.765 42.1143 134.632 42.2807 134.364C42.4496 134.097 42.5379 133.676 42.5455 133.101V131.955ZM47.7503 135.261H44.1417V134.758L46.0481 132.639C46.3306 132.319 46.5247 132.059 46.6306 131.86C46.7391 131.658 46.7933 131.45 46.7933 131.236C46.7933 130.949 46.7063 130.713 46.5323 130.529C46.3583 130.345 46.1263 130.253 45.8363 130.253C45.4883 130.253 45.2172 130.352 45.0231 130.551C44.8314 130.748 44.7356 131.023 44.7356 131.376H44.0358C44.0358 130.869 44.1985 130.459 44.5238 130.147C44.8516 129.834 45.2891 129.678 45.8363 129.678C46.3482 129.678 46.7529 129.813 47.0505 130.082C47.3481 130.35 47.4968 130.707 47.4968 131.153C47.4968 131.695 47.1514 132.341 46.4604 133.09L44.9852 134.69H47.7503V135.261ZM50.7915 135.261H50.0879V130.597L48.677 131.115V130.48L50.6818 129.727H50.7915V135.261Z" fill="black"/>
<path d="M67.3205 129.753V133.498C67.318 134.018 67.1541 134.442 66.8288 134.773C66.506 135.103 66.0672 135.288 65.5124 135.329L65.3195 135.336C64.7168 135.336 64.2365 135.174 63.8784 134.848C63.5203 134.523 63.3387 134.076 63.3337 133.506V129.753H64.0524V133.483C64.0524 133.881 64.1621 134.192 64.3815 134.413C64.6008 134.633 64.9135 134.743 65.3195 134.743C65.7306 134.743 66.0445 134.633 66.2614 134.413C66.4808 134.194 66.5905 133.885 66.5905 133.487V129.753H67.3205ZM69.3063 130.177V131.168H70.0704V131.709H69.3063V134.247C69.3063 134.411 69.3404 134.534 69.4085 134.618C69.4766 134.698 69.5926 134.739 69.7565 134.739C69.8372 134.739 69.9481 134.724 70.0893 134.693V135.261C69.9053 135.311 69.7262 135.336 69.5522 135.336C69.2395 135.336 69.0037 135.242 68.8449 135.053C68.686 134.864 68.6066 134.595 68.6066 134.247V131.709H67.8614V131.168H68.6066V130.177H69.3063ZM72.0336 133.366L71.5948 133.823V135.261H70.895V129.451H71.5948V132.965L71.9693 132.515L73.244 131.168H74.0951L72.5026 132.878L74.2804 135.261H73.4596L72.0336 133.366ZM77.3443 135.261C77.3039 135.18 77.2712 135.036 77.2459 134.83C76.9206 135.167 76.5323 135.336 76.0809 135.336C75.6774 135.336 75.3458 135.223 75.0861 134.996C74.8289 134.766 74.7003 134.476 74.7003 134.126C74.7003 133.7 74.8617 133.369 75.1844 133.135C75.5097 132.898 75.9662 132.779 76.5537 132.779H77.2346V132.458C77.2346 132.213 77.1615 132.019 77.0152 131.875C76.8689 131.729 76.6533 131.656 76.3684 131.656C76.1187 131.656 75.9094 131.719 75.7405 131.845C75.5715 131.971 75.4871 132.124 75.4871 132.303H74.7835C74.7835 132.099 74.8554 131.902 74.9991 131.713C75.1454 131.521 75.3421 131.37 75.5892 131.259C75.8388 131.148 76.1124 131.092 76.41 131.092C76.8816 131.092 77.251 131.211 77.5183 131.448C77.7856 131.682 77.9243 132.006 77.9344 132.42V134.304C77.9344 134.679 77.9823 134.978 78.0781 135.2V135.261H77.3443ZM76.183 134.727C76.4024 134.727 76.6105 134.671 76.8072 134.557C77.0039 134.444 77.1463 134.296 77.2346 134.115V133.275H76.6861C75.8287 133.275 75.4001 133.526 75.4001 134.028C75.4001 134.247 75.4732 134.418 75.6194 134.542C75.7657 134.666 75.9536 134.727 76.183 134.727ZM81.0096 131.796C80.9037 131.778 80.7889 131.769 80.6654 131.769C80.2064 131.769 79.895 131.965 79.7311 132.356V135.261H79.0313V131.168H79.7122L79.7235 131.641C79.953 131.275 80.2783 131.092 80.6994 131.092C80.8356 131.092 80.939 131.11 81.0096 131.145V131.796ZM84.0394 134.175C84.0394 133.986 83.9676 133.84 83.8238 133.736C83.6826 133.63 83.4342 133.54 83.0787 133.464C82.7256 133.388 82.4444 133.298 82.2351 133.192C82.0284 133.086 81.8745 132.96 81.7737 132.813C81.6753 132.667 81.6262 132.493 81.6262 132.291C81.6262 131.956 81.7674 131.672 82.0498 131.44C82.3348 131.208 82.6979 131.092 83.1392 131.092C83.6032 131.092 83.9789 131.212 84.2664 131.452C84.5564 131.691 84.7014 131.998 84.7014 132.371H83.9978C83.9978 132.179 83.9159 132.014 83.7519 131.875C83.5906 131.737 83.3863 131.667 83.1392 131.667C82.8845 131.667 82.6853 131.723 82.5415 131.834C82.3978 131.945 82.3259 132.09 82.3259 132.269C82.3259 132.438 82.3927 132.565 82.5264 132.651C82.6601 132.737 82.9009 132.818 83.2489 132.897C83.5994 132.975 83.8831 133.068 84.0999 133.177C84.3168 133.285 84.4769 133.416 84.5803 133.57C84.6862 133.721 84.7392 133.907 84.7392 134.126C84.7392 134.492 84.5929 134.785 84.3004 135.007C84.0079 135.227 83.6284 135.336 83.1619 135.336C82.834 135.336 82.5441 135.278 82.2919 135.162C82.0397 135.046 81.8418 134.885 81.698 134.678C81.5568 134.469 81.4862 134.243 81.4862 134.001H82.186C82.1986 134.236 82.2919 134.422 82.4659 134.561C82.6424 134.697 82.8744 134.765 83.1619 134.765C83.4266 134.765 83.6385 134.712 83.7973 134.606C83.9587 134.498 84.0394 134.354 84.0394 134.175ZM86.3506 131.664C86.6607 131.283 87.0642 131.092 87.561 131.092C88.4259 131.092 88.8622 131.58 88.8698 132.556V135.261H88.17V132.552C88.1675 132.257 88.0994 132.039 87.9657 131.898C87.8346 131.757 87.6291 131.686 87.3492 131.686C87.1222 131.686 86.923 131.747 86.7515 131.868C86.58 131.989 86.4464 132.148 86.3506 132.344V135.261H85.6508V129.451H86.3506V131.664Z" fill="black"/>
<path d="M220.066 132.499L220.346 129.753H223.168V130.4H220.94L220.774 131.902C221.044 131.743 221.35 131.664 221.693 131.664C222.195 131.664 222.593 131.83 222.888 132.163C223.183 132.493 223.331 132.941 223.331 133.506C223.331 134.073 223.177 134.521 222.869 134.848C222.564 135.174 222.137 135.336 221.587 135.336C221.1 135.336 220.703 135.201 220.395 134.932C220.088 134.662 219.913 134.289 219.87 133.812H220.532C220.575 134.127 220.687 134.366 220.868 134.527C221.05 134.686 221.289 134.765 221.587 134.765C221.912 134.765 222.167 134.654 222.351 134.432C222.538 134.21 222.631 133.904 222.631 133.513C222.631 133.145 222.53 132.85 222.328 132.628C222.129 132.404 221.863 132.291 221.53 132.291C221.225 132.291 220.986 132.358 220.812 132.492L220.626 132.643L220.066 132.499ZM227.548 132.912C227.548 133.731 227.408 134.34 227.128 134.739C226.849 135.137 226.411 135.336 225.816 135.336C225.228 135.336 224.793 135.142 224.511 134.754C224.228 134.363 224.082 133.78 224.072 133.006V132.072C224.072 131.263 224.212 130.661 224.492 130.268C224.772 129.874 225.211 129.678 225.808 129.678C226.401 129.678 226.837 129.868 227.117 130.249C227.397 130.627 227.541 131.212 227.548 132.004V132.912ZM226.849 131.955C226.849 131.362 226.765 130.931 226.599 130.661C226.432 130.389 226.169 130.253 225.808 130.253C225.45 130.253 225.189 130.388 225.025 130.657C224.861 130.927 224.777 131.342 224.772 131.902V133.021C224.772 133.617 224.858 134.057 225.029 134.342C225.203 134.624 225.465 134.765 225.816 134.765C226.161 134.765 226.417 134.632 226.584 134.364C226.753 134.097 226.841 133.676 226.849 133.101V131.955ZM231.898 132.912C231.898 133.731 231.758 134.34 231.478 134.739C231.198 135.137 230.761 135.336 230.166 135.336C229.578 135.336 229.143 135.142 228.861 134.754C228.578 134.363 228.432 133.78 228.422 133.006V132.072C228.422 131.263 228.562 130.661 228.842 130.268C229.122 129.874 229.561 129.678 230.158 129.678C230.751 129.678 231.187 129.868 231.467 130.249C231.747 130.627 231.891 131.212 231.898 132.004V132.912ZM231.198 131.955C231.198 131.362 231.115 130.931 230.949 130.661C230.782 130.389 230.519 130.253 230.158 130.253C229.8 130.253 229.539 130.388 229.375 130.657C229.211 130.927 229.127 131.342 229.122 131.902V133.021C229.122 133.617 229.208 134.057 229.379 134.342C229.553 134.624 229.815 134.765 230.166 134.765C230.511 134.765 230.767 134.632 230.934 134.364C231.103 134.097 231.191 133.676 231.198 133.101V131.955ZM234.928 135.734H234.327L236.626 129.753H237.224L234.928 135.734ZM242.13 135.261H241.427V130.597L240.016 131.115V130.48L242.02 129.727H242.13V135.261ZM247.683 132.7L247.01 133.4V135.261H246.283V129.753H247.01V132.477L249.457 129.753H250.334L248.167 132.186L250.505 135.261H249.635L247.683 132.7ZM255.085 134.538C254.899 134.806 254.638 135.006 254.302 135.14C253.969 135.271 253.581 135.336 253.137 135.336C252.688 135.336 252.29 135.232 251.942 135.022C251.594 134.811 251.324 134.511 251.133 134.122C250.943 133.734 250.846 133.284 250.841 132.772V132.291C250.841 131.462 251.034 130.819 251.42 130.362C251.808 129.906 252.353 129.678 253.054 129.678C253.629 129.678 254.092 129.825 254.442 130.12C254.793 130.413 255.007 130.829 255.085 131.368H254.359C254.223 130.64 253.789 130.275 253.058 130.275C252.571 130.275 252.202 130.447 251.95 130.79C251.7 131.13 251.574 131.624 251.571 132.273V132.723C251.571 133.34 251.713 133.832 251.995 134.198C252.277 134.561 252.659 134.743 253.141 134.743C253.413 134.743 253.652 134.712 253.856 134.652C254.06 134.591 254.229 134.489 254.363 134.345V133.108H253.088V132.518H255.085V134.538Z" fill="black"/>
<path d="M277.821 135.261H277.117V130.597L275.706 131.115V130.48L277.711 129.727H277.821V135.261Z" fill="black"/>
<path d="M376.549 132.499L376.829 129.753H379.651V130.4H377.423L377.257 131.902C377.527 131.743 377.833 131.664 378.176 131.664C378.678 131.664 379.076 131.83 379.371 132.163C379.666 132.493 379.814 132.941 379.814 133.506C379.814 134.073 379.66 134.521 379.352 134.848C379.047 135.174 378.62 135.336 378.07 135.336C377.583 135.336 377.186 135.201 376.879 134.932C376.571 134.662 376.396 134.289 376.353 133.812H377.015C377.058 134.127 377.17 134.366 377.351 134.527C377.533 134.686 377.772 134.765 378.07 134.765C378.395 134.765 378.65 134.654 378.834 134.432C379.021 134.21 379.114 133.904 379.114 133.513C379.114 133.145 379.013 132.85 378.811 132.628C378.612 132.404 378.346 132.291 378.013 132.291C377.708 132.291 377.469 132.358 377.295 132.492L377.109 132.643L376.549 132.499ZM384.031 132.912C384.031 133.731 383.891 134.34 383.611 134.739C383.332 135.137 382.894 135.336 382.299 135.336C381.711 135.336 381.276 135.142 380.994 134.754C380.712 134.363 380.565 133.78 380.555 133.006V132.072C380.555 131.263 380.695 130.661 380.975 130.268C381.255 129.874 381.694 129.678 382.291 129.678C382.884 129.678 383.32 129.868 383.6 130.249C383.88 130.627 384.024 131.212 384.031 132.004V132.912ZM383.332 131.955C383.332 131.362 383.248 130.931 383.082 130.661C382.915 130.389 382.652 130.253 382.291 130.253C381.933 130.253 381.672 130.388 381.508 130.657C381.344 130.927 381.26 131.342 381.255 131.902V133.021C381.255 133.617 381.341 134.057 381.512 134.342C381.686 134.624 381.948 134.765 382.299 134.765C382.644 134.765 382.9 134.632 383.067 134.364C383.236 134.097 383.324 133.676 383.332 133.101V131.955ZM388.381 132.912C388.381 133.731 388.241 134.34 387.961 134.739C387.682 135.137 387.244 135.336 386.649 135.336C386.061 135.336 385.626 135.142 385.344 134.754C385.061 134.363 384.915 133.78 384.905 133.006V132.072C384.905 131.263 385.045 130.661 385.325 130.268C385.605 129.874 386.044 129.678 386.641 129.678C387.234 129.678 387.67 129.868 387.95 130.249C388.23 130.627 388.374 131.212 388.381 132.004V132.912ZM387.682 131.955C387.682 131.362 387.598 130.931 387.432 130.661C387.265 130.389 387.002 130.253 386.641 130.253C386.283 130.253 386.022 130.388 385.858 130.657C385.694 130.927 385.61 131.342 385.605 131.902V133.021C385.605 133.617 385.691 134.057 385.862 134.342C386.036 134.624 386.298 134.765 386.649 134.765C386.994 134.765 387.25 134.632 387.417 134.364C387.586 134.097 387.674 133.676 387.682 133.101V131.955Z" fill="black"/>
<path d="M435.856 133.207H434.01V132.636H435.856V133.207ZM439.423 133.411H440.187V133.982H439.423V135.261H438.72V133.982H436.212V133.57L438.678 129.753H439.423V133.411ZM437.006 133.411H438.72V130.71L438.636 130.862L437.006 133.411ZM444.272 132.912C444.272 133.731 444.132 134.34 443.853 134.739C443.573 135.137 443.135 135.336 442.54 135.336C441.952 135.336 441.517 135.142 441.235 134.754C440.953 134.363 440.806 133.78 440.796 133.006V132.072C440.796 131.263 440.936 130.661 441.216 130.268C441.496 129.874 441.935 129.678 442.532 129.678C443.125 129.678 443.561 129.868 443.841 130.249C444.121 130.627 444.265 131.212 444.272 132.004V132.912ZM443.573 131.955C443.573 131.362 443.489 130.931 443.323 130.661C443.157 130.389 442.893 130.253 442.532 130.253C442.174 130.253 441.913 130.388 441.749 130.657C441.586 130.927 441.501 131.342 441.496 131.902V133.021C441.496 133.617 441.582 134.057 441.753 134.342C441.927 134.624 442.19 134.765 442.54 134.765C442.885 134.765 443.141 134.632 443.308 134.364C443.477 134.097 443.565 133.676 443.573 133.101V131.955ZM448.622 132.912C448.622 133.731 448.482 134.34 448.203 134.739C447.923 135.137 447.485 135.336 446.89 135.336C446.302 135.336 445.867 135.142 445.585 134.754C445.303 134.363 445.156 133.78 445.146 133.006V132.072C445.146 131.263 445.286 130.661 445.566 130.268C445.846 129.874 446.285 129.678 446.882 129.678C447.475 129.678 447.911 129.868 448.191 130.249C448.471 130.627 448.615 131.212 448.622 132.004V132.912ZM447.923 131.955C447.923 131.362 447.839 130.931 447.673 130.661C447.507 130.389 447.243 130.253 446.882 130.253C446.524 130.253 446.263 130.388 446.099 130.657C445.936 130.927 445.851 131.342 445.846 131.902V133.021C445.846 133.617 445.932 134.057 446.103 134.342C446.277 134.624 446.539 134.765 446.89 134.765C447.235 134.765 447.491 134.632 447.658 134.364C447.827 134.097 447.915 133.676 447.923 133.101V131.955Z" fill="black"/>
<path d="M489.308 133.207H487.462V132.636H489.308V133.207ZM492.221 135.261H491.517V130.597L490.107 131.115V130.48L492.111 129.727H492.221V135.261ZM497.725 132.912C497.725 133.731 497.585 134.34 497.305 134.739C497.025 135.137 496.587 135.336 495.992 135.336C495.405 135.336 494.97 135.142 494.687 134.754C494.405 134.363 494.258 133.78 494.248 133.006V132.072C494.248 131.263 494.388 130.661 494.668 130.268C494.948 129.874 495.387 129.678 495.985 129.678C496.577 129.678 497.013 129.868 497.293 130.249C497.573 130.627 497.717 131.212 497.725 132.004V132.912ZM497.025 131.955C497.025 131.362 496.942 130.931 496.775 130.661C496.609 130.389 496.345 130.253 495.985 130.253C495.627 130.253 495.366 130.388 495.202 130.657C495.038 130.927 494.953 131.342 494.948 131.902V133.021C494.948 133.617 495.034 134.057 495.205 134.342C495.379 134.624 495.642 134.765 495.992 134.765C496.338 134.765 496.594 134.632 496.76 134.364C496.929 134.097 497.017 133.676 497.025 133.101V131.955ZM502.075 132.912C502.075 133.731 501.935 134.34 501.655 134.739C501.375 135.137 500.937 135.336 500.342 135.336C499.755 135.336 499.32 135.142 499.037 134.754C498.755 134.363 498.608 133.78 498.598 133.006V132.072C498.598 131.263 498.738 130.661 499.018 130.268C499.298 129.874 499.737 129.678 500.335 129.678C500.927 129.678 501.363 129.868 501.643 130.249C501.923 130.627 502.067 131.212 502.075 132.004V132.912ZM501.375 131.955C501.375 131.362 501.292 130.931 501.125 130.661C500.959 130.389 500.695 130.253 500.335 130.253C499.976 130.253 499.715 130.388 499.552 130.657C499.388 130.927 499.303 131.342 499.298 131.902V133.021C499.298 133.617 499.384 134.057 499.555 134.342C499.729 134.624 499.992 134.765 500.342 134.765C500.688 134.765 500.944 134.632 501.11 134.364C501.279 134.097 501.367 133.676 501.375 133.101V131.955Z" fill="black"/>
<path d="M18.3068 151.527H17.6033V146.863L16.1924 147.382V146.746L18.1971 145.993H18.3068V151.527ZM23.3111 149.678H24.0752V150.249H23.3111V151.527H22.6076V150.249H20.0998V149.837L22.566 146.02H23.3111V149.678ZM20.8941 149.678H22.6076V146.977L22.5244 147.128L20.8941 149.678ZM24.9187 152H24.3173L26.6171 146.02H27.2148L24.9187 152ZM30.8536 149.678H31.6177V150.249H30.8536V151.527H30.15V150.249H27.6422V149.837L30.1084 146.02H30.8536V149.678ZM28.4365 149.678H30.15V146.977L30.0668 147.128L28.4365 149.678ZM32.4612 152H31.8597L34.1595 146.02H34.7572L32.4612 152ZM39.0504 151.527H35.4418V151.024L37.3482 148.906C37.6307 148.586 37.8248 148.326 37.9308 148.127C38.0392 147.925 38.0934 147.717 38.0934 147.503C38.0934 147.215 38.0064 146.979 37.8324 146.795C37.6584 146.611 37.4264 146.519 37.1364 146.519C36.7884 146.519 36.5173 146.619 36.3232 146.818C36.1315 147.015 36.0357 147.29 36.0357 147.643H35.3359C35.3359 147.136 35.4986 146.726 35.8239 146.413C36.1517 146.101 36.5892 145.944 37.1364 145.944C37.6483 145.944 38.0531 146.079 38.3506 146.349C38.6482 146.616 38.797 146.973 38.797 147.419C38.797 147.962 38.4515 148.607 37.7605 149.356L36.2853 150.956H39.0504V151.527ZM43.2452 149.178C43.2452 149.998 43.1053 150.607 42.8254 151.005C42.5455 151.404 42.108 151.603 41.5128 151.603C40.9253 151.603 40.4903 151.409 40.2079 151.02C39.9254 150.63 39.7792 150.047 39.7691 149.273V148.339C39.7691 147.529 39.909 146.928 40.1889 146.534C40.4688 146.141 40.9076 145.944 41.5053 145.944C42.0979 145.944 42.5341 146.135 42.814 146.515C43.0939 146.894 43.2377 147.479 43.2452 148.271V149.178ZM42.5455 148.221C42.5455 147.629 42.4623 147.198 42.2958 146.928C42.1294 146.655 41.8659 146.519 41.5053 146.519C41.1472 146.519 40.8862 146.654 40.7223 146.924C40.5584 147.194 40.4739 147.609 40.4688 148.168V149.288C40.4688 149.883 40.5546 150.323 40.7261 150.608C40.9001 150.891 41.1623 151.032 41.5128 151.032C41.8583 151.032 42.1143 150.898 42.2807 150.631C42.4496 150.364 42.5379 149.942 42.5455 149.368V148.221ZM47.7503 151.527H44.1417V151.024L46.0481 148.906C46.3306 148.586 46.5247 148.326 46.6306 148.127C46.7391 147.925 46.7933 147.717 46.7933 147.503C46.7933 147.215 46.7063 146.979 46.5323 146.795C46.3583 146.611 46.1263 146.519 45.8363 146.519C45.4883 146.519 45.2172 146.619 45.0231 146.818C44.8314 147.015 44.7356 147.29 44.7356 147.643H44.0358C44.0358 147.136 44.1985 146.726 44.5238 146.413C44.8516 146.101 45.2891 145.944 45.8363 145.944C46.3482 145.944 46.7529 146.079 47.0505 146.349C47.3481 146.616 47.4968 146.973 47.4968 147.419C47.4968 147.962 47.1514 148.607 46.4604 149.356L44.9852 150.956H47.7503V151.527ZM50.7915 151.527H50.0879V146.863L48.677 147.382V146.746L50.6818 145.993H50.7915V151.527Z" fill="black"/>
<path d="M64.3815 146.02L66.182 150.514L67.9824 146.02H68.9243V151.527H68.1981V149.383L68.2661 147.068L66.4581 151.527H65.902L64.0978 147.079L64.1696 149.383V151.527H63.4434V146.02H64.3815ZM72.6237 151.527C72.5833 151.447 72.5505 151.303 72.5253 151.096C72.2 151.434 71.8117 151.603 71.3603 151.603C70.9568 151.603 70.6252 151.49 70.3655 151.263C70.1082 151.033 69.9796 150.743 69.9796 150.393C69.9796 149.966 70.141 149.636 70.4638 149.402C70.7891 149.165 71.2455 149.046 71.8331 149.046H72.514V148.724C72.514 148.48 72.4408 148.286 72.2946 148.142C72.1483 147.996 71.9327 147.923 71.6478 147.923C71.3981 147.923 71.1888 147.986 71.0198 148.112C70.8509 148.238 70.7664 148.39 70.7664 148.569H70.0629C70.0629 148.365 70.1347 148.168 70.2785 147.979C70.4247 147.788 70.6214 147.636 70.8685 147.525C71.1182 147.414 71.3918 147.359 71.6894 147.359C72.1609 147.359 72.5303 147.477 72.7977 147.715C73.065 147.949 73.2036 148.273 73.2137 148.687V150.57C73.2137 150.946 73.2616 151.245 73.3575 151.467V151.527H72.6237ZM71.4624 150.994C71.6818 150.994 71.8898 150.937 72.0865 150.824C72.2832 150.71 72.4257 150.563 72.514 150.381V149.541H71.9655C71.1081 149.541 70.6794 149.792 70.6794 150.294C70.6794 150.514 70.7525 150.685 70.8988 150.809C71.0451 150.932 71.2329 150.994 71.4624 150.994ZM75.5892 150.502L76.5424 147.435H77.2913L75.6459 152.159C75.3912 152.84 74.9865 153.18 74.4317 153.18L74.2993 153.169L74.0383 153.12V152.552L74.2275 152.568C74.4645 152.568 74.6486 152.52 74.7797 152.424C74.9134 152.328 75.0231 152.153 75.1088 151.898L75.2639 151.482L73.8038 147.435H74.5679L75.5892 150.502ZM80.3855 151.527C80.3451 151.447 80.3123 151.303 80.2871 151.096C79.9618 151.434 79.5735 151.603 79.1221 151.603C78.7186 151.603 78.387 151.49 78.1273 151.263C77.8701 151.033 77.7415 150.743 77.7415 150.393C77.7415 149.966 77.9028 149.636 78.2256 149.402C78.5509 149.165 79.0074 149.046 79.5949 149.046H80.2758V148.724C80.2758 148.48 80.2026 148.286 80.0564 148.142C79.9101 147.996 79.6945 147.923 79.4096 147.923C79.1599 147.923 78.9506 147.986 78.7817 148.112C78.6127 148.238 78.5282 148.39 78.5282 148.569H77.8247C77.8247 148.365 77.8965 148.168 78.0403 147.979C78.1865 147.788 78.3832 147.636 78.6304 147.525C78.88 147.414 79.1536 147.359 79.4512 147.359C79.9227 147.359 80.2922 147.477 80.5595 147.715C80.8268 147.949 80.9655 148.273 80.9755 148.687V150.57C80.9755 150.946 81.0235 151.245 81.1193 151.467V151.527H80.3855ZM79.2242 150.994C79.4436 150.994 79.6517 150.937 79.8483 150.824C80.045 150.71 80.1875 150.563 80.2758 150.381V149.541H79.7273C78.8699 149.541 78.4412 149.792 78.4412 150.294C78.4412 150.514 78.5144 150.685 78.6606 150.809C78.8069 150.932 78.9947 150.994 79.2242 150.994ZM82.7344 147.435L82.7571 147.949C83.0698 147.556 83.4783 147.359 83.9827 147.359C84.8476 147.359 85.2839 147.847 85.2915 148.823V151.527H84.5917V148.819C84.5892 148.524 84.5211 148.306 84.3874 148.165C84.2563 148.023 84.0508 147.953 83.7709 147.953C83.5439 147.953 83.3447 148.013 83.1732 148.134C83.0017 148.255 82.8681 148.414 82.7723 148.611V151.527H82.0725V147.435H82.7344ZM87.4891 149.632L87.0503 150.09V151.527H86.3506V145.717H87.0503V149.231L87.4248 148.781L88.6995 147.435H89.5506L87.9582 149.144L89.736 151.527H88.9151L87.4891 149.632Z" fill="black"/>
<path d="M133.87 146.618H132.1V151.527H131.377V146.618H129.611V146.02H133.87V146.618ZM134.014 149.443C134.014 149.042 134.092 148.682 134.248 148.361C134.407 148.041 134.627 147.794 134.907 147.62C135.189 147.446 135.511 147.359 135.871 147.359C136.428 147.359 136.879 147.552 137.221 147.938C137.567 148.324 137.74 148.837 137.74 149.477V149.526C137.74 149.925 137.663 150.283 137.509 150.601C137.358 150.916 137.14 151.162 136.855 151.338C136.572 151.515 136.247 151.603 135.879 151.603C135.324 151.603 134.874 151.41 134.528 151.024C134.185 150.638 134.014 150.128 134.014 149.492V149.443ZM134.717 149.526C134.717 149.98 134.822 150.345 135.031 150.62C135.243 150.894 135.526 151.032 135.879 151.032C136.234 151.032 136.517 150.893 136.726 150.616C136.935 150.336 137.04 149.945 137.04 149.443C137.04 148.994 136.933 148.631 136.718 148.354C136.507 148.074 136.224 147.934 135.871 147.934C135.526 147.934 135.247 148.071 135.035 148.346C134.823 148.621 134.717 149.014 134.717 149.526ZM139.275 147.435L139.294 147.889C139.594 147.535 139.999 147.359 140.509 147.359C141.081 147.359 141.471 147.578 141.677 148.017C141.814 147.82 141.99 147.662 142.207 147.541C142.426 147.419 142.685 147.359 142.982 147.359C143.88 147.359 144.336 147.834 144.352 148.785V151.527H143.652V148.827C143.652 148.534 143.585 148.316 143.451 148.172C143.318 148.026 143.093 147.953 142.778 147.953C142.518 147.953 142.303 148.031 142.131 148.187C141.96 148.341 141.86 148.549 141.832 148.811V151.527H141.129V148.846C141.129 148.25 140.838 147.953 140.255 147.953C139.796 147.953 139.482 148.148 139.313 148.539V151.527H138.613V147.435H139.275ZM147.937 151.527C147.897 151.447 147.864 151.303 147.839 151.096C147.514 151.434 147.125 151.603 146.674 151.603C146.271 151.603 145.939 151.49 145.679 151.263C145.422 151.033 145.293 150.743 145.293 150.393C145.293 149.966 145.455 149.636 145.778 149.402C146.103 149.165 146.559 149.046 147.147 149.046H147.828V148.724C147.828 148.48 147.755 148.286 147.608 148.142C147.462 147.996 147.247 147.923 146.962 147.923C146.712 147.923 146.503 147.986 146.334 148.112C146.165 148.238 146.08 148.39 146.08 148.569H145.377C145.377 148.365 145.449 148.168 145.592 147.979C145.739 147.788 145.935 147.636 146.182 147.525C146.432 147.414 146.706 147.359 147.003 147.359C147.475 147.359 147.844 147.477 148.111 147.715C148.379 147.949 148.517 148.273 148.528 148.687V150.57C148.528 150.946 148.575 151.245 148.671 151.467V151.527H147.937ZM146.776 150.994C146.996 150.994 147.204 150.937 147.4 150.824C147.597 150.71 147.74 150.563 147.828 150.381V149.541H147.279C146.422 149.541 145.993 149.792 145.993 150.294C145.993 150.514 146.066 150.685 146.213 150.809C146.359 150.932 146.547 150.994 146.776 150.994ZM150.574 146.444V147.435H151.338V147.976H150.574V150.514C150.574 150.678 150.608 150.801 150.676 150.884C150.744 150.965 150.86 151.005 151.024 151.005C151.105 151.005 151.216 150.99 151.357 150.96V151.527C151.173 151.578 150.994 151.603 150.82 151.603C150.507 151.603 150.271 151.508 150.112 151.319C149.954 151.13 149.874 150.862 149.874 150.514V147.976H149.129V147.435H149.874V146.444H150.574ZM151.898 149.443C151.898 149.042 151.976 148.682 152.132 148.361C152.291 148.041 152.511 147.794 152.791 147.62C153.073 147.446 153.394 147.359 153.755 147.359C154.312 147.359 154.762 147.552 155.105 147.938C155.451 148.324 155.624 148.837 155.624 149.477V149.526C155.624 149.925 155.547 150.283 155.393 150.601C155.242 150.916 155.023 151.162 154.739 151.338C154.456 151.515 154.131 151.603 153.763 151.603C153.208 151.603 152.758 151.41 152.412 151.024C152.069 150.638 151.898 150.128 151.898 149.492V149.443ZM152.601 149.526C152.601 149.98 152.706 150.345 152.915 150.62C153.127 150.894 153.41 151.032 153.763 151.032C154.118 151.032 154.401 150.893 154.61 150.616C154.819 150.336 154.924 149.945 154.924 149.443C154.924 148.994 154.817 148.631 154.602 148.354C154.391 148.074 154.108 147.934 153.755 147.934C153.41 147.934 153.131 148.071 152.919 148.346C152.707 148.621 152.601 149.014 152.601 149.526Z" fill="black"/>
<path d="M220.066 148.766L220.346 146.02H223.168V146.667H220.94L220.774 148.168C221.044 148.01 221.35 147.93 221.693 147.93C222.195 147.93 222.593 148.097 222.888 148.429C223.183 148.76 223.331 149.207 223.331 149.772C223.331 150.34 223.177 150.787 222.869 151.115C222.564 151.44 222.137 151.603 221.587 151.603C221.1 151.603 220.703 151.468 220.395 151.198C220.088 150.928 219.913 150.555 219.87 150.079H220.532C220.575 150.394 220.687 150.632 220.868 150.794C221.05 150.952 221.289 151.032 221.587 151.032C221.912 151.032 222.167 150.921 222.351 150.699C222.538 150.477 222.631 150.171 222.631 149.78C222.631 149.412 222.53 149.117 222.328 148.895C222.129 148.67 221.863 148.558 221.53 148.558C221.225 148.558 220.986 148.625 220.812 148.759L220.626 148.91L220.066 148.766ZM227.548 149.178C227.548 149.998 227.408 150.607 227.128 151.005C226.849 151.404 226.411 151.603 225.816 151.603C225.228 151.603 224.793 151.409 224.511 151.02C224.228 150.63 224.082 150.047 224.072 149.273V148.339C224.072 147.529 224.212 146.928 224.492 146.534C224.772 146.141 225.211 145.944 225.808 145.944C226.401 145.944 226.837 146.135 227.117 146.515C227.397 146.894 227.541 147.479 227.548 148.271V149.178ZM226.849 148.221C226.849 147.629 226.765 147.198 226.599 146.928C226.432 146.655 226.169 146.519 225.808 146.519C225.45 146.519 225.189 146.654 225.025 146.924C224.861 147.194 224.777 147.609 224.772 148.168V149.288C224.772 149.883 224.858 150.323 225.029 150.608C225.203 150.891 225.465 151.032 225.816 151.032C226.161 151.032 226.417 150.898 226.584 150.631C226.753 150.364 226.841 149.942 226.849 149.368V148.221ZM230.578 152H229.977L232.277 146.02H232.874L230.578 152ZM237.78 151.527H237.077V146.863L235.666 147.382V146.746L237.67 145.993H237.78V151.527ZM243.333 148.967L242.66 149.666V151.527H241.933V146.02H242.66V148.743L245.107 146.02H245.985L243.817 148.452L246.155 151.527H245.285L243.333 148.967ZM250.735 150.805C250.549 151.072 250.288 151.273 249.952 151.406C249.62 151.537 249.231 151.603 248.787 151.603C248.339 151.603 247.94 151.498 247.592 151.289C247.244 151.077 246.974 150.777 246.783 150.389C246.593 150 246.496 149.55 246.491 149.038V148.558C246.491 147.728 246.684 147.085 247.07 146.629C247.458 146.172 248.003 145.944 248.704 145.944C249.279 145.944 249.742 146.092 250.092 146.387C250.443 146.679 250.657 147.095 250.735 147.635H250.009C249.873 146.906 249.439 146.542 248.708 146.542C248.221 146.542 247.852 146.713 247.6 147.056C247.35 147.397 247.224 147.891 247.221 148.539V148.989C247.221 149.607 247.363 150.099 247.645 150.464C247.927 150.828 248.31 151.009 248.791 151.009C249.064 151.009 249.302 150.979 249.506 150.918C249.71 150.858 249.879 150.756 250.013 150.612V149.375H248.738V148.785H250.735V150.805Z" fill="black"/>
<path d="M277.821 151.527H277.117V146.863L275.706 147.382V146.746L277.711 145.993H277.821V151.527Z" fill="black"/>
<path d="M376.549 148.766L376.829 146.02H379.651V146.667H377.423L377.257 148.168C377.527 148.01 377.833 147.93 378.176 147.93C378.678 147.93 379.076 148.097 379.371 148.429C379.666 148.76 379.814 149.207 379.814 149.772C379.814 150.34 379.66 150.787 379.352 151.115C379.047 151.44 378.62 151.603 378.07 151.603C377.583 151.603 377.186 151.468 376.879 151.198C376.571 150.928 376.396 150.555 376.353 150.079H377.015C377.058 150.394 377.17 150.632 377.351 150.794C377.533 150.952 377.772 151.032 378.07 151.032C378.395 151.032 378.65 150.921 378.834 150.699C379.021 150.477 379.114 150.171 379.114 149.78C379.114 149.412 379.013 149.117 378.811 148.895C378.612 148.67 378.346 148.558 378.013 148.558C377.708 148.558 377.469 148.625 377.295 148.759L377.109 148.91L376.549 148.766ZM384.031 149.178C384.031 149.998 383.891 150.607 383.611 151.005C383.332 151.404 382.894 151.603 382.299 151.603C381.711 151.603 381.276 151.409 380.994 151.02C380.712 150.63 380.565 150.047 380.555 149.273V148.339C380.555 147.529 380.695 146.928 380.975 146.534C381.255 146.141 381.694 145.944 382.291 145.944C382.884 145.944 383.32 146.135 383.6 146.515C383.88 146.894 384.024 147.479 384.031 148.271V149.178ZM383.332 148.221C383.332 147.629 383.248 147.198 383.082 146.928C382.915 146.655 382.652 146.519 382.291 146.519C381.933 146.519 381.672 146.654 381.508 146.924C381.344 147.194 381.26 147.609 381.255 148.168V149.288C381.255 149.883 381.341 150.323 381.512 150.608C381.686 150.891 381.948 151.032 382.299 151.032C382.644 151.032 382.9 150.898 383.067 150.631C383.236 150.364 383.324 149.942 383.332 149.368V148.221Z" fill="black"/>
<path d="M435.856 149.473H434.01V148.902H435.856V149.473ZM436.791 148.766L437.07 146.02H439.892V146.667H437.664L437.498 148.168C437.768 148.01 438.074 147.93 438.417 147.93C438.919 147.93 439.317 148.097 439.612 148.429C439.907 148.76 440.055 149.207 440.055 149.772C440.055 150.34 439.901 150.787 439.593 151.115C439.288 151.44 438.861 151.603 438.311 151.603C437.824 151.603 437.427 151.468 437.12 151.198C436.812 150.928 436.637 150.555 436.594 150.079H437.256C437.299 150.394 437.411 150.632 437.592 150.794C437.774 150.952 438.014 151.032 438.311 151.032C438.636 151.032 438.891 150.921 439.075 150.699C439.262 150.477 439.355 150.171 439.355 149.78C439.355 149.412 439.254 149.117 439.053 148.895C438.853 148.67 438.587 148.558 438.254 148.558C437.949 148.558 437.71 148.625 437.536 148.759L437.35 148.91L436.791 148.766ZM444.272 149.178C444.272 149.998 444.132 150.607 443.853 151.005C443.573 151.404 443.135 151.603 442.54 151.603C441.952 151.603 441.517 151.409 441.235 151.02C440.953 150.63 440.806 150.047 440.796 149.273V148.339C440.796 147.529 440.936 146.928 441.216 146.534C441.496 146.141 441.935 145.944 442.532 145.944C443.125 145.944 443.561 146.135 443.841 146.515C444.121 146.894 444.265 147.479 444.272 148.271V149.178ZM443.573 148.221C443.573 147.629 443.489 147.198 443.323 146.928C443.157 146.655 442.893 146.519 442.532 146.519C442.174 146.519 441.913 146.654 441.749 146.924C441.586 147.194 441.501 147.609 441.496 148.168V149.288C441.496 149.883 441.582 150.323 441.753 150.608C441.927 150.891 442.19 151.032 442.54 151.032C442.885 151.032 443.141 150.898 443.308 150.631C443.477 150.364 443.565 149.942 443.573 149.368V148.221Z" fill="black"/>
<path d="M491.234 149.178C491.234 149.998 491.094 150.607 490.814 151.005C490.534 151.404 490.096 151.603 489.501 151.603C488.914 151.603 488.479 151.409 488.196 151.02C487.914 150.63 487.768 150.047 487.758 149.273V148.339C487.758 147.529 487.897 146.928 488.177 146.534C488.457 146.141 488.896 145.944 489.494 145.944C490.086 145.944 490.523 146.135 490.802 146.515C491.082 146.894 491.226 147.479 491.234 148.271V149.178ZM490.534 148.221C490.534 147.629 490.451 147.198 490.284 146.928C490.118 146.655 489.854 146.519 489.494 146.519C489.136 146.519 488.875 146.654 488.711 146.924C488.547 147.194 488.462 147.609 488.457 148.168V149.288C488.457 149.883 488.543 150.323 488.715 150.608C488.889 150.891 489.151 151.032 489.501 151.032C489.847 151.032 490.103 150.898 490.269 150.631C490.438 150.364 490.526 149.942 490.534 149.368V148.221Z" fill="black"/>
<path d="M17.5322 167.021H16.8286V162.358L15.4177 162.876V162.24L17.4225 161.488H17.5322V167.021ZM22.5365 165.172H23.3006V165.743H22.5365V167.021H21.8329V165.743H19.3251V165.331L21.7913 161.514H22.5365V165.172ZM20.1194 165.172H21.8329V162.471L21.7497 162.622L20.1194 165.172ZM24.1441 167.494H23.5427L25.8424 161.514H26.4401L24.1441 167.494ZM30.0789 165.172H30.843V165.743H30.0789V167.021H29.3754V165.743H26.8675V165.331L29.3338 161.514H30.0789V165.172ZM27.6619 165.172H29.3754V162.471L29.2921 162.622L27.6619 165.172ZM31.6865 167.494H31.0851L33.3849 161.514H33.9825L31.6865 167.494ZM38.2757 167.021H34.6672V166.518L36.5736 164.4C36.856 164.08 37.0502 163.82 37.1561 163.621C37.2645 163.419 37.3187 163.211 37.3187 162.997C37.3187 162.709 37.2317 162.474 37.0577 162.289C36.8837 162.105 36.6518 162.013 36.3618 162.013C36.0138 162.013 35.7427 162.113 35.5485 162.312C35.3569 162.509 35.261 162.784 35.261 163.137H34.5613C34.5613 162.63 34.7239 162.22 35.0492 161.907C35.377 161.595 35.8145 161.438 36.3618 161.438C36.8737 161.438 37.2784 161.573 37.576 161.843C37.8735 162.11 38.0223 162.467 38.0223 162.914C38.0223 163.456 37.6768 164.101 36.9859 164.85L35.5107 166.45H38.2757V167.021ZM42.4706 164.673C42.4706 165.492 42.3306 166.101 42.0507 166.499C41.7708 166.898 41.3333 167.097 40.7382 167.097C40.1506 167.097 39.7156 166.903 39.4332 166.515C39.1508 166.124 39.0045 165.541 38.9944 164.767V163.833C38.9944 163.023 39.1344 162.422 39.4143 162.029C39.6942 161.635 40.133 161.438 40.7306 161.438C41.3232 161.438 41.7595 161.629 42.0394 162.01C42.3193 162.388 42.463 162.973 42.4706 163.765V164.673ZM41.7708 163.716C41.7708 163.123 41.6876 162.692 41.5212 162.422C41.3547 162.15 41.0912 162.013 40.7306 162.013C40.3725 162.013 40.1115 162.148 39.9476 162.418C39.7837 162.688 39.6992 163.103 39.6942 163.663V164.782C39.6942 165.377 39.7799 165.817 39.9514 166.102C40.1254 166.385 40.3877 166.526 40.7382 166.526C41.0837 166.526 41.3396 166.392 41.506 166.125C41.675 165.858 41.7633 165.437 41.7708 164.862V163.716ZM46.9756 167.021H43.3671V166.518L45.2735 164.4C45.5559 164.08 45.7501 163.82 45.856 163.621C45.9644 163.419 46.0186 163.211 46.0186 162.997C46.0186 162.709 45.9316 162.474 45.7576 162.289C45.5836 162.105 45.3516 162.013 45.0616 162.013C44.7137 162.013 44.4426 162.113 44.2484 162.312C44.0567 162.509 43.9609 162.784 43.9609 163.137H43.2611C43.2611 162.63 43.4238 162.22 43.7491 161.907C44.0769 161.595 44.5144 161.438 45.0616 161.438C45.5736 161.438 45.9783 161.573 46.2758 161.843C46.5734 162.11 46.7222 162.467 46.7222 162.914C46.7222 163.456 46.3767 164.101 45.6858 164.85L44.2106 166.45H46.9756V167.021ZM50.0168 167.021H49.3132V162.358L47.9024 162.876V162.24L49.9071 161.488H50.0168V167.021Z" fill="black"/>
<path d="M64.6886 164.794H63.395V167.021H62.6649V161.514H64.4881C65.1085 161.514 65.5851 161.655 65.9179 161.938C66.2533 162.22 66.421 162.631 66.421 163.171C66.421 163.514 66.3277 163.813 66.1411 164.067C65.957 164.322 65.6998 164.512 65.3695 164.638L66.6631 166.976V167.021H65.8839L64.6886 164.794ZM63.395 164.2H64.5108C64.8714 164.2 65.1576 164.106 65.3695 163.92C65.5838 163.733 65.691 163.484 65.691 163.171C65.691 162.83 65.5889 162.569 65.3846 162.388C65.1829 162.206 64.8903 162.114 64.507 162.112H63.395V164.2ZM69.8594 167.021C69.819 166.941 69.7862 166.797 69.761 166.59C69.4357 166.928 69.0474 167.097 68.596 167.097C68.1925 167.097 67.8609 166.984 67.6012 166.757C67.344 166.527 67.2154 166.237 67.2154 165.887C67.2154 165.461 67.3767 165.13 67.6995 164.896C68.0248 164.659 68.4813 164.54 69.0688 164.54H69.7497V164.219C69.7497 163.974 69.6765 163.78 69.5303 163.636C69.384 163.49 69.1684 163.417 68.8835 163.417C68.6338 163.417 68.4245 163.48 68.2556 163.606C68.0866 163.732 68.0021 163.884 68.0021 164.064H67.2986C67.2986 163.859 67.3704 163.663 67.5142 163.473C67.6604 163.282 67.8571 163.13 68.1043 163.02C68.3539 162.909 68.6275 162.853 68.9251 162.853C69.3966 162.853 69.7661 162.972 70.0334 163.209C70.3007 163.443 70.4394 163.767 70.4494 164.181V166.064C70.4494 166.44 70.4974 166.739 70.5932 166.961V167.021H69.8594ZM68.6981 166.488C68.9175 166.488 69.1256 166.431 69.3222 166.318C69.5189 166.204 69.6614 166.057 69.7497 165.875V165.036H69.2012C68.3438 165.036 67.9151 165.287 67.9151 165.788C67.9151 166.008 67.9883 166.179 68.1345 166.303C68.2808 166.426 68.4686 166.488 68.6981 166.488ZM72.2462 163.424C72.5563 163.043 72.9598 162.853 73.4566 162.853C74.3215 162.853 74.7578 163.341 74.7654 164.317V167.021H74.0656V164.313C74.0631 164.018 73.995 163.8 73.8613 163.659C73.7302 163.518 73.5247 163.447 73.2448 163.447C73.0178 163.447 72.8186 163.507 72.6471 163.629C72.4756 163.75 72.342 163.908 72.2462 164.105V167.021H71.5464V161.211H72.2462V163.424ZM78.3399 166.617C78.0675 166.937 77.6678 167.097 77.1408 167.097C76.7045 167.097 76.3717 166.971 76.1422 166.719C75.9152 166.464 75.8005 166.088 75.798 165.592V162.929H76.4978V165.573C76.4978 166.193 76.7499 166.503 77.2543 166.503C77.7889 166.503 78.1444 166.304 78.321 165.906V162.929H79.0207V167.021H78.355L78.3399 166.617ZM80.8477 167.021H80.1479V161.211H80.8477V167.021Z" fill="black"/>
<path d="M130.016 164.865V167.021H129.29V161.514H131.321C131.924 161.514 132.396 161.668 132.736 161.976C133.079 162.283 133.251 162.69 133.251 163.197C133.251 163.732 133.083 164.144 132.747 164.434C132.415 164.722 131.937 164.865 131.314 164.865H130.016ZM130.016 164.272H131.321C131.71 164.272 132.007 164.181 132.214 163.999C132.421 163.815 132.524 163.55 132.524 163.205C132.524 162.877 132.421 162.615 132.214 162.418C132.007 162.221 131.724 162.119 131.363 162.112H130.016V164.272ZM134.828 167.021H134.128V162.929H134.828V167.021ZM134.071 161.843C134.071 161.73 134.105 161.634 134.173 161.556C134.244 161.478 134.347 161.438 134.484 161.438C134.62 161.438 134.723 161.478 134.794 161.556C134.864 161.634 134.9 161.73 134.9 161.843C134.9 161.957 134.864 162.051 134.794 162.127C134.723 162.203 134.62 162.24 134.484 162.24C134.347 162.24 134.244 162.203 134.173 162.127C134.105 162.051 134.071 161.957 134.071 161.843ZM136.609 166.45H139.004V167.021H135.755V166.507L138.013 163.507H135.789V162.929H138.89V163.424L136.609 166.45ZM140.453 166.45H142.847V167.021H139.598V166.507L141.856 163.507H139.632V162.929H142.733V163.424L140.453 166.45ZM146.164 167.021C146.124 166.941 146.091 166.797 146.066 166.59C145.741 166.928 145.352 167.097 144.901 167.097C144.497 167.097 144.166 166.984 143.906 166.757C143.649 166.527 143.52 166.237 143.52 165.887C143.52 165.461 143.682 165.13 144.004 164.896C144.33 164.659 144.786 164.54 145.374 164.54H146.055V164.219C146.055 163.974 145.981 163.78 145.835 163.636C145.689 163.49 145.473 163.417 145.188 163.417C144.939 163.417 144.729 163.48 144.56 163.606C144.391 163.732 144.307 163.884 144.307 164.064H143.603C143.603 163.859 143.675 163.663 143.819 163.473C143.965 163.282 144.162 163.13 144.409 163.02C144.659 162.909 144.932 162.853 145.23 162.853C145.701 162.853 146.071 162.972 146.338 163.209C146.606 163.443 146.744 163.767 146.754 164.181V166.064C146.754 166.44 146.802 166.739 146.898 166.961V167.021H146.164ZM145.003 166.488C145.222 166.488 145.43 166.431 145.627 166.318C145.824 166.204 145.966 166.057 146.055 165.875V165.036H145.506C144.649 165.036 144.22 165.287 144.22 165.788C144.22 166.008 144.293 166.179 144.439 166.303C144.586 166.426 144.773 166.488 145.003 166.488Z" fill="black"/>
<path d="M221.924 165.172H222.688V165.743H221.924V167.021H221.221V165.743H218.713V165.331L221.179 161.514H221.924V165.172ZM219.507 165.172H221.221V162.471L221.138 162.622L219.507 165.172ZM226.774 164.673C226.774 165.492 226.634 166.101 226.354 166.499C226.074 166.898 225.636 167.097 225.041 167.097C224.454 167.097 224.019 166.903 223.736 166.515C223.454 166.124 223.308 165.541 223.297 164.767V163.833C223.297 163.023 223.437 162.422 223.717 162.029C223.997 161.635 224.436 161.438 225.034 161.438C225.626 161.438 226.063 161.629 226.342 162.01C226.622 162.388 226.766 162.973 226.774 163.765V164.673ZM226.074 163.716C226.074 163.123 225.991 162.692 225.824 162.422C225.658 162.15 225.394 162.013 225.034 162.013C224.676 162.013 224.415 162.148 224.251 162.418C224.087 162.688 224.002 163.103 223.997 163.663V164.782C223.997 165.377 224.083 165.817 224.254 166.102C224.428 166.385 224.691 166.526 225.041 166.526C225.387 166.526 225.643 166.392 225.809 166.125C225.978 165.858 226.066 165.437 226.074 164.862V163.716ZM231.124 164.673C231.124 165.492 230.984 166.101 230.704 166.499C230.424 166.898 229.986 167.097 229.391 167.097C228.804 167.097 228.369 166.903 228.086 166.515C227.804 166.124 227.657 165.541 227.647 164.767V163.833C227.647 163.023 227.787 162.422 228.067 162.029C228.347 161.635 228.786 161.438 229.384 161.438C229.976 161.438 230.412 161.629 230.692 162.01C230.972 162.388 231.116 162.973 231.124 163.765V164.673ZM230.424 163.716C230.424 163.123 230.341 162.692 230.174 162.422C230.008 162.15 229.744 162.013 229.384 162.013C229.026 162.013 228.765 162.148 228.601 162.418C228.437 162.688 228.352 163.103 228.347 163.663V164.782C228.347 165.377 228.433 165.817 228.604 166.102C228.778 166.385 229.041 166.526 229.391 166.526C229.737 166.526 229.993 166.392 230.159 166.125C230.328 165.858 230.416 165.437 230.424 164.862V163.716ZM234.153 167.494H233.552L235.852 161.514H236.449L234.153 167.494ZM241.355 167.021H240.652V162.358L239.241 162.876V162.24L241.246 161.488H241.355V167.021ZM248.856 165.021C248.856 165.643 248.714 166.145 248.429 166.526C248.144 166.907 247.758 167.097 247.271 167.097C246.775 167.097 246.384 166.94 246.099 166.624V168.595H245.399V162.929H246.038L246.072 163.383C246.357 163.03 246.753 162.853 247.26 162.853C247.752 162.853 248.14 163.038 248.425 163.409C248.712 163.78 248.856 164.296 248.856 164.956V165.021ZM248.156 164.941C248.156 164.48 248.058 164.115 247.861 163.848C247.665 163.581 247.395 163.447 247.052 163.447C246.628 163.447 246.311 163.635 246.099 164.011V165.966C246.308 166.339 246.628 166.526 247.06 166.526C247.395 166.526 247.661 166.394 247.858 166.129C248.057 165.861 248.156 165.466 248.156 164.941ZM250.509 167.021H249.809V162.929H250.509V167.021ZM249.753 161.843C249.753 161.73 249.787 161.634 249.855 161.556C249.925 161.478 250.029 161.438 250.165 161.438C250.301 161.438 250.405 161.478 250.475 161.556C250.546 161.634 250.581 161.73 250.581 161.843C250.581 161.957 250.546 162.051 250.475 162.127C250.405 162.203 250.301 162.24 250.165 162.24C250.029 162.24 249.925 162.203 249.855 162.127C249.787 162.051 249.753 161.957 249.753 161.843ZM253.331 167.097C252.776 167.097 252.325 166.916 251.977 166.552C251.629 166.187 251.455 165.699 251.455 165.089V164.96C251.455 164.554 251.532 164.192 251.686 163.874C251.842 163.554 252.059 163.304 252.336 163.125C252.616 162.944 252.919 162.853 253.244 162.853C253.776 162.853 254.19 163.028 254.485 163.379C254.78 163.729 254.927 164.231 254.927 164.884V165.176H252.155C252.165 165.579 252.282 165.906 252.506 166.155C252.733 166.402 253.021 166.526 253.369 166.526C253.616 166.526 253.825 166.476 253.997 166.375C254.168 166.274 254.318 166.14 254.447 165.974L254.874 166.307C254.531 166.834 254.017 167.097 253.331 167.097ZM253.244 163.428C252.962 163.428 252.725 163.531 252.533 163.738C252.341 163.942 252.223 164.23 252.177 164.601H254.227V164.548C254.207 164.192 254.111 163.917 253.94 163.723C253.769 163.526 253.537 163.428 253.244 163.428ZM257.382 166.526C257.632 166.526 257.85 166.45 258.036 166.299C258.223 166.148 258.326 165.959 258.347 165.732H259.009C258.996 165.966 258.915 166.189 258.767 166.401C258.618 166.613 258.419 166.782 258.169 166.908C257.922 167.034 257.66 167.097 257.382 167.097C256.825 167.097 256.381 166.912 256.051 166.541C255.723 166.168 255.559 165.659 255.559 165.013V164.896C255.559 164.497 255.632 164.143 255.778 163.833C255.925 163.523 256.134 163.282 256.406 163.11C256.681 162.939 257.005 162.853 257.378 162.853C257.837 162.853 258.218 162.991 258.521 163.265C258.826 163.54 258.988 163.897 259.009 164.336H258.347C258.326 164.071 258.226 163.854 258.044 163.685C257.865 163.514 257.643 163.428 257.378 163.428C257.023 163.428 256.747 163.557 256.55 163.814C256.356 164.069 256.259 164.438 256.259 164.922V165.055C256.259 165.526 256.356 165.889 256.55 166.144C256.744 166.399 257.022 166.526 257.382 166.526ZM261.494 167.097C260.939 167.097 260.488 166.916 260.14 166.552C259.792 166.187 259.618 165.699 259.618 165.089V164.96C259.618 164.554 259.695 164.192 259.848 163.874C260.005 163.554 260.222 163.304 260.499 163.125C260.779 162.944 261.081 162.853 261.407 162.853C261.939 162.853 262.352 163.028 262.647 163.379C262.942 163.729 263.09 164.231 263.09 164.884V165.176H260.317C260.327 165.579 260.445 165.906 260.669 166.155C260.896 166.402 261.184 166.526 261.532 166.526C261.779 166.526 261.988 166.476 262.159 166.375C262.331 166.274 262.481 166.14 262.61 165.974L263.037 166.307C262.694 166.834 262.18 167.097 261.494 167.097ZM261.407 163.428C261.124 163.428 260.887 163.531 260.696 163.738C260.504 163.942 260.385 164.23 260.34 164.601H262.39V164.548C262.37 164.192 262.274 163.917 262.103 163.723C261.931 163.526 261.699 163.428 261.407 163.428Z" fill="black"/>
<path d="M277.046 167.021H276.343V162.358L274.932 162.876V162.24L276.936 161.488H277.046V167.021Z" fill="black"/>
<path d="M324.181 165.172H324.945V165.743H324.181V167.021H323.477V165.743H320.969V165.331L323.435 161.514H324.181V165.172ZM321.764 165.172H323.477V162.471L323.394 162.622L321.764 165.172ZM329.03 164.673C329.03 165.492 328.89 166.101 328.61 166.499C328.33 166.898 327.893 167.097 327.297 167.097C326.71 167.097 326.275 166.903 325.992 166.515C325.71 166.124 325.564 165.541 325.554 164.767V163.833C325.554 163.023 325.694 162.422 325.974 162.029C326.253 161.635 326.692 161.438 327.29 161.438C327.883 161.438 328.319 161.629 328.599 162.01C328.879 162.388 329.022 162.973 329.03 163.765V164.673ZM328.33 163.716C328.33 163.123 328.247 162.692 328.08 162.422C327.914 162.15 327.651 162.013 327.29 162.013C326.932 162.013 326.671 162.148 326.507 162.418C326.343 162.688 326.259 163.103 326.253 163.663V164.782C326.253 165.377 326.339 165.817 326.511 166.102C326.685 166.385 326.947 166.526 327.297 166.526C327.643 166.526 327.899 166.392 328.065 166.125C328.234 165.858 328.323 165.437 328.33 164.862V163.716ZM333.38 164.673C333.38 165.492 333.24 166.101 332.96 166.499C332.68 166.898 332.243 167.097 331.647 167.097C331.06 167.097 330.625 166.903 330.342 166.515C330.06 166.124 329.914 165.541 329.904 164.767V163.833C329.904 163.023 330.044 162.422 330.324 162.029C330.603 161.635 331.042 161.438 331.64 161.438C332.232 161.438 332.669 161.629 332.949 162.01C333.229 162.388 333.372 162.973 333.38 163.765V164.673ZM332.68 163.716C332.68 163.123 332.597 162.692 332.43 162.422C332.264 162.15 332 162.013 331.64 162.013C331.282 162.013 331.021 162.148 330.857 162.418C330.693 162.688 330.608 163.103 330.603 163.663V164.782C330.603 165.377 330.689 165.817 330.861 166.102C331.035 166.385 331.297 166.526 331.647 166.526C331.993 166.526 332.249 166.392 332.415 166.125C332.584 165.858 332.672 165.437 332.68 164.862V163.716Z" fill="black"/>
<path d="M324.377 200.583H325.001V201.465H324.377V202.656H323.284V201.465H321.026L320.977 200.776L323.273 197.149H324.377V200.583ZM322.066 200.583H323.284V198.639L323.212 198.764L322.066 200.583ZM329.298 200.379C329.298 201.141 329.141 201.723 328.826 202.127C328.51 202.53 328.049 202.732 327.441 202.732C326.841 202.732 326.382 202.534 326.064 202.138C325.747 201.742 325.584 201.175 325.576 200.436V199.422C325.576 198.653 325.735 198.069 326.053 197.671C326.373 197.272 326.833 197.073 327.434 197.073C328.034 197.073 328.493 197.271 328.81 197.667C329.128 198.06 329.291 198.627 329.298 199.365V200.379ZM328.205 199.267C328.205 198.811 328.142 198.479 328.016 198.272C327.893 198.063 327.698 197.958 327.434 197.958C327.176 197.958 326.986 198.058 326.862 198.257C326.741 198.454 326.677 198.763 326.67 199.184V200.523C326.67 200.972 326.73 201.306 326.851 201.525C326.975 201.742 327.171 201.851 327.441 201.851C327.709 201.851 327.901 201.746 328.02 201.537C328.138 201.327 328.2 201.007 328.205 200.576V199.267ZM333.747 200.379C333.747 201.141 333.589 201.723 333.274 202.127C332.959 202.53 332.497 202.732 331.89 202.732C331.289 202.732 330.83 202.534 330.513 202.138C330.195 201.742 330.032 201.175 330.025 200.436V199.422C330.025 198.653 330.184 198.069 330.501 197.671C330.822 197.272 331.282 197.073 331.882 197.073C332.482 197.073 332.941 197.271 333.259 197.667C333.577 198.06 333.739 198.627 333.747 199.365V200.379ZM332.654 199.267C332.654 198.811 332.591 198.479 332.464 198.272C332.341 198.063 332.147 197.958 331.882 197.958C331.625 197.958 331.434 198.058 331.311 198.257C331.19 198.454 331.125 198.763 331.118 199.184V200.523C331.118 200.972 331.178 201.306 331.299 201.525C331.423 201.742 331.62 201.851 331.89 201.851C332.157 201.851 332.35 201.746 332.468 201.537C332.587 201.327 332.649 201.007 332.654 200.576V199.267Z" fill="black"/>
<path d="M376.307 199.948L376.625 197.149H379.712V198.06H377.522L377.385 199.244C377.645 199.106 377.921 199.036 378.214 199.036C378.738 199.036 379.149 199.199 379.447 199.524C379.744 199.85 379.893 200.305 379.893 200.89C379.893 201.245 379.818 201.564 379.666 201.847C379.517 202.127 379.303 202.345 379.023 202.501C378.743 202.655 378.413 202.732 378.032 202.732C377.699 202.732 377.39 202.665 377.105 202.531C376.821 202.395 376.595 202.205 376.428 201.96C376.264 201.716 376.177 201.437 376.167 201.124H377.249C377.272 201.354 377.351 201.533 377.488 201.661C377.626 201.788 377.807 201.851 378.028 201.851C378.276 201.851 378.466 201.762 378.6 201.586C378.733 201.407 378.8 201.155 378.8 200.829C378.8 200.517 378.723 200.277 378.569 200.111C378.416 199.944 378.197 199.861 377.915 199.861C377.655 199.861 377.445 199.929 377.283 200.065L377.177 200.164L376.307 199.948ZM380.756 199.948L381.073 197.149H384.16V198.06H381.97L381.834 199.244C382.093 199.106 382.37 199.036 382.662 199.036C383.187 199.036 383.598 199.199 383.895 199.524C384.193 199.85 384.342 200.305 384.342 200.89C384.342 201.245 384.266 201.564 384.115 201.847C383.966 202.127 383.751 202.345 383.472 202.501C383.192 202.655 382.861 202.732 382.48 202.732C382.148 202.732 381.839 202.665 381.554 202.531C381.269 202.395 381.043 202.205 380.877 201.96C380.713 201.716 380.626 201.437 380.616 201.124H381.698C381.72 201.354 381.8 201.533 381.936 201.661C382.075 201.788 382.255 201.851 382.477 201.851C382.724 201.851 382.914 201.762 383.048 201.586C383.182 201.407 383.248 201.155 383.248 200.829C383.248 200.517 383.171 200.277 383.018 200.111C382.864 199.944 382.646 199.861 382.363 199.861C382.104 199.861 381.893 199.929 381.732 200.065L381.626 200.164L380.756 199.948ZM388.748 200.379C388.748 201.141 388.591 201.723 388.275 202.127C387.96 202.53 387.499 202.732 386.891 202.732C386.291 202.732 385.832 202.534 385.514 202.138C385.196 201.742 385.034 201.175 385.026 200.436V199.422C385.026 198.653 385.185 198.069 385.503 197.671C385.823 197.272 386.283 197.073 386.883 197.073C387.484 197.073 387.943 197.271 388.26 197.667C388.578 198.06 388.741 198.627 388.748 199.365V200.379ZM387.655 199.267C387.655 198.811 387.592 198.479 387.466 198.272C387.342 198.063 387.148 197.958 386.883 197.958C386.626 197.958 386.436 198.058 386.312 198.257C386.191 198.454 386.127 198.763 386.119 199.184V200.523C386.119 200.972 386.18 201.306 386.301 201.525C386.424 201.742 386.621 201.851 386.891 201.851C387.158 201.851 387.351 201.746 387.47 201.537C387.588 201.327 387.65 201.007 387.655 200.576V199.267Z" fill="black"/>
<path d="M437.191 201.514H435.061V200.633H437.191V201.514ZM438.186 200.723L438.503 197.924H441.59V198.836H439.4L439.264 200.02C439.523 199.881 439.799 199.812 440.092 199.812C440.616 199.812 441.028 199.974 441.325 200.3C441.623 200.625 441.771 201.08 441.771 201.665C441.771 202.021 441.696 202.34 441.544 202.622C441.396 202.902 441.181 203.12 440.901 203.277C440.622 203.43 440.291 203.507 439.91 203.507C439.578 203.507 439.269 203.44 438.984 203.307C438.699 203.171 438.473 202.98 438.307 202.736C438.143 202.491 438.056 202.212 438.046 201.9H439.127C439.15 202.129 439.23 202.308 439.366 202.437C439.504 202.563 439.685 202.626 439.907 202.626C440.154 202.626 440.344 202.538 440.478 202.361C440.611 202.182 440.678 201.93 440.678 201.605C440.678 201.292 440.601 201.052 440.448 200.886C440.294 200.72 440.076 200.636 439.793 200.636C439.533 200.636 439.323 200.704 439.161 200.841L439.056 200.939L438.186 200.723ZM446.178 201.155C446.178 201.916 446.021 202.499 445.705 202.902C445.39 203.306 444.929 203.507 444.321 203.507C443.721 203.507 443.262 203.309 442.944 202.913C442.626 202.518 442.464 201.95 442.456 201.211V200.198C442.456 199.428 442.615 198.845 442.933 198.446C443.253 198.048 443.713 197.849 444.313 197.849C444.913 197.849 445.372 198.047 445.69 198.442C446.008 198.836 446.171 199.402 446.178 200.141V201.155ZM445.085 200.042C445.085 199.586 445.022 199.254 444.896 199.048C444.772 198.838 444.578 198.734 444.313 198.734C444.056 198.734 443.866 198.833 443.742 199.033C443.621 199.229 443.557 199.538 443.549 199.959V201.298C443.549 201.747 443.61 202.081 443.731 202.301C443.854 202.518 444.051 202.626 444.321 202.626C444.588 202.626 444.781 202.521 444.9 202.312C445.018 202.103 445.08 201.782 445.085 201.351V200.042Z" fill="black"/>
<path d="M489.868 201.514H487.739V200.633H489.868V201.514ZM493.356 203.432H492.263V199.218L490.958 199.623V198.734L493.238 197.917H493.356V203.432ZM498.856 201.155C498.856 201.916 498.698 202.499 498.383 202.902C498.068 203.306 497.606 203.507 496.998 203.507C496.398 203.507 495.939 203.309 495.621 202.913C495.304 202.518 495.141 201.95 495.134 201.211V200.198C495.134 199.428 495.292 198.845 495.61 198.446C495.93 198.048 496.391 197.849 496.991 197.849C497.591 197.849 498.05 198.047 498.368 198.442C498.685 198.836 498.848 199.402 498.856 200.141V201.155ZM497.762 200.042C497.762 199.586 497.699 199.254 497.573 199.048C497.45 198.838 497.256 198.734 496.991 198.734C496.734 198.734 496.543 198.833 496.42 199.033C496.299 199.229 496.234 199.538 496.227 199.959V201.298C496.227 201.747 496.287 202.081 496.408 202.301C496.532 202.518 496.729 202.626 496.998 202.626C497.266 202.626 497.459 202.521 497.577 202.312C497.696 202.103 497.757 201.782 497.762 201.351V200.042ZM503.304 201.155C503.304 201.916 503.146 202.499 502.831 202.902C502.516 203.306 502.054 203.507 501.447 203.507C500.846 203.507 500.388 203.309 500.07 202.913C499.752 202.518 499.589 201.95 499.582 201.211V200.198C499.582 199.428 499.741 198.845 500.058 198.446C500.379 198.048 500.839 197.849 501.439 197.849C502.039 197.849 502.498 198.047 502.816 198.442C503.134 198.836 503.296 199.402 503.304 200.141V201.155ZM502.211 200.042C502.211 199.586 502.148 199.254 502.022 199.048C501.898 198.838 501.704 198.734 501.439 198.734C501.182 198.734 500.991 198.833 500.868 199.033C500.747 199.229 500.683 199.538 500.675 199.959V201.298C500.675 201.747 500.736 202.081 500.857 202.301C500.98 202.518 501.177 202.626 501.447 202.626C501.714 202.626 501.907 202.521 502.025 202.312C502.144 202.103 502.206 201.782 502.211 201.351V200.042Z" fill="black"/>
<path d="M436.405 164.067H437.94V164.729H436.405V166.469H435.701V164.729H434.165V164.067H435.701V162.46H436.405V164.067ZM441.678 165.172H442.442V165.743H441.678V167.021H440.974V165.743H438.466V165.331L440.932 161.514H441.678V165.172ZM439.261 165.172H440.974V162.471L440.891 162.622L439.261 165.172ZM446.527 164.673C446.527 165.492 446.387 166.101 446.107 166.499C445.827 166.898 445.39 167.097 444.794 167.097C444.207 167.097 443.772 166.903 443.489 166.515C443.207 166.124 443.061 165.541 443.051 164.767V163.833C443.051 163.023 443.191 162.422 443.471 162.029C443.75 161.635 444.189 161.438 444.787 161.438C445.379 161.438 445.816 161.629 446.096 162.01C446.376 162.388 446.519 162.973 446.527 163.765V164.673ZM445.827 163.716C445.827 163.123 445.744 162.692 445.577 162.422C445.411 162.15 445.147 162.013 444.787 162.013C444.429 162.013 444.168 162.148 444.004 162.418C443.84 162.688 443.755 163.103 443.75 163.663V164.782C443.75 165.377 443.836 165.817 444.008 166.102C444.182 166.385 444.444 166.526 444.794 166.526C445.14 166.526 445.396 166.392 445.562 166.125C445.731 165.858 445.82 165.437 445.827 164.862V163.716ZM450.877 164.673C450.877 165.492 450.737 166.101 450.457 166.499C450.177 166.898 449.739 167.097 449.144 167.097C448.557 167.097 448.122 166.903 447.839 166.515C447.557 166.124 447.411 165.541 447.401 164.767V163.833C447.401 163.023 447.541 162.422 447.82 162.029C448.1 161.635 448.539 161.438 449.137 161.438C449.729 161.438 450.166 161.629 450.446 162.01C450.725 162.388 450.869 162.973 450.877 163.765V164.673ZM450.177 163.716C450.177 163.123 450.094 162.692 449.927 162.422C449.761 162.15 449.497 162.013 449.137 162.013C448.779 162.013 448.518 162.148 448.354 162.418C448.19 162.688 448.105 163.103 448.1 163.663V164.782C448.1 165.377 448.186 165.817 448.358 166.102C448.532 166.385 448.794 166.526 449.144 166.526C449.49 166.526 449.746 166.392 449.912 166.125C450.081 165.858 450.169 165.437 450.177 164.862V163.716Z" fill="black"/>
<path d="M491.234 164.673C491.234 165.492 491.094 166.101 490.814 166.499C490.534 166.898 490.096 167.097 489.501 167.097C488.914 167.097 488.479 166.903 488.196 166.515C487.914 166.124 487.768 165.541 487.758 164.767V163.833C487.758 163.023 487.897 162.422 488.177 162.029C488.457 161.635 488.896 161.438 489.494 161.438C490.086 161.438 490.523 161.629 490.802 162.01C491.082 162.388 491.226 162.973 491.234 163.765V164.673ZM490.534 163.716C490.534 163.123 490.451 162.692 490.284 162.422C490.118 162.15 489.854 162.013 489.494 162.013C489.136 162.013 488.875 162.148 488.711 162.418C488.547 162.688 488.462 163.103 488.457 163.663V164.782C488.457 165.377 488.543 165.817 488.715 166.102C488.889 166.385 489.151 166.526 489.501 166.526C489.847 166.526 490.103 166.392 490.269 166.125C490.438 165.858 490.526 165.437 490.534 164.862V163.716Z" fill="black"/>
</g>
<defs>
<filter id="filter0_d" x="12" y="15" width="530" height="547" filterUnits="userSpaceOnUse" color-interpolation-filters="sRGB">
<feFlood flood-opacity="0" result="BackgroundImageFix"/>
<feColorMatrix in="SourceAlpha" type="matrix" values="0 0 0 0 0 0 0 0 0 0 0 0 0 0 0 0 0 0 127 0"/>
<feOffset dy="2"/>
<feGaussianBlur stdDeviation="1"/>
<feColorMatrix type="matrix" values="0 0 0 0 0 0 0 0 0 0 0 0 0 0 0 0 0 0 0.1 0"/>
<feBlend mode="normal" in2="BackgroundImageFix" result="effect1_dropShadow"/>
<feBlend mode="normal" in="SourceGraphic" in2="effect1_dropShadow" result="shape"/>
</filter>
</defs>
</svg>
